<?xml version="1.0" standalone="yes"?>
<svg xmlns="http://www.w3.org/2000/svg" width="1320" height="868">
<path style="fill:#fffff7; stroke:none;" d="M0 0L0 4L5 1L0 0z"/>
<path style="fill:#536860; stroke:none;" d="M5 0L6 1L5 0z"/>
<path style="fill:#2d2d2d; stroke:none;" d="M1315 112L1286 110L1286 109L1303 109L1303 108L1274 106L1274 105L1287 105L1287 104L1269 104L1269 103L1271 103L1271 102L1264 102L1264 101L1271 101L1271 100L1261 100L1261 99L1263 99L1263 98L1257 98L1257 97L1267 97L1267 96L1254 96L1255 94L1251 94L1251 93L1255 93L1255 92L1248 92L1248 91L1251 91L1251 90L1245 90L1245 89L1247 89L1247 88L1242 88L1242 87L1247 87L1247 86L1240 86L1240 85L1243 85L1243 84L1238 84L1238 83L1245 83L1245 82C1241.08 82 1236.22 83.1187 1237 80L1234 80L1234 79L1239 79L1239 78L1232 78L1232 77L1235 77L1235 76L1230 76L1230 75L1235 75L1235 74L1228 74L1228 73L1231 73L1231 72L1226 72L1226 71L1231 71L1231 70L1225 70L1225 69L1227 69L1227 68L1223 68L1223 67L1231 67L1231 66L1222 66L1220 64L1220 63L1227 63L1227 62L1219 62L1219 61L1221 61L1221 60L1218 60L1218 59L1223 59L1223 58L1216 58L1216 57L1219 57L1219 56L1215 56L1215 55L1219 55L1219 54L1214 54L1213 52L1213 51L1219 51L1219 50L1212 50L1211 48L1211 47L1215 47L1215 46L1210 46L1209 44L1209 43L1215 43L1215 42L1208 42L1208 41L1211 41L1211 40L1208 40L1208 39L1211 39L1211 38L1206 35L1211 35L1211 34L1205 34L1205 33C1207.53 32.4943 1207.53 32.5057 1205 32L1205 31L1211 31L1211 30L1204 30L1204 29L1207 29L1207 28L1204 28L1204 27L1211 27L1211 26L1203 26L1203 25C1205.53 24.4943 1205.53 24.5057 1203 24L1203 23L1207 23L1207 22L1202 22L1202 19L1207 19L1207 18L1201 18L1201 17C1203.53 16.4943 1203.53 16.5057 1201 16L1201 15L1207 15L1207 14L1201 14L1201 13C1203.53 12.4943 1203.53 12.5057 1201 12L1201 11L1207 11L1207 10L1200 10L1200 9L1203 9L1203 8L1200 8L1200 7L1205 7L1205 6L1200 6L1200 5L1203 5L1203 4L1200 4L1200 3L1207 3L1207 2L1200 2L1200 1L1203 1C1196.32 -1.80206 1186.22 0 1179 0L1125 0L938 0L289 0L81 0L26 0C19.7277 0 9.48528 -1.93109 4.05864 1.74231C-0.81975 5.04462 0 10.8462 0 16L0 50L0 195L0 686L0 815L0 849C0 853.309 -1.01134 859.167 1.6034 862.895C5.98897 869.148 14.3753 868 21 868L72 868L285 868L1057 868L1245 868L1288 868C1296.84 868 1304.53 868.631 1310.61 860.985C1320.19 848.914 1315 821.614 1315 807L1315 665L1315 112z"/>
<path style="fill:#536860; stroke:none;" d="M1200 1L1200 2L1207 2L1207 3L1200 3L1200 4L1203 4L1203 5L1200 5L1200 6L1205 6L1205 7L1200 7L1200 8L1203 8L1203 9L1200 9L1200 10L1207 10L1207 11L1201 11L1201 12C1202.96 12.6534 1203.55 13 1201 13L1201 14L1207 14L1207 15L1201 15L1201 16C1202.96 16.6533 1203.55 17 1201 17L1201 18L1207 18L1207 19L1202 19L1202 22L1207 22L1207 23L1203 23L1203 24C1204.96 24.6534 1205.55 25 1203 25L1203 26L1211 26L1211 27L1204 27L1204 28L1207 28L1207 29L1204 29L1204 30L1211 30L1211 31L1205 31L1205 32C1206.96 32.6534 1207.55 33 1205 33L1205 34L1211 34L1211 35L1206 35L1211 38L1211 39L1208 39L1208 40L1211 40L1211 41L1208 41L1208 42L1215 42L1215 43L1209 43L1209 44L1210 46L1215 46L1215 47L1211 47L1211 48L1212 50L1219 50L1219 51L1213 51L1213 52L1214 54L1219 54L1219 55L1215 55L1215 56L1219 56L1219 57L1216 57L1216 58L1223 58L1223 59L1218 59L1218 60L1221 60L1221 61L1219 61L1219 62L1227 62L1227 63L1220 63L1220 64L1222 66L1231 66L1231 67L1223 67L1223 68L1227 68L1227 69L1225 69L1225 70L1231 70L1231 71L1226 71L1226 72L1231 72L1231 73L1228 73L1228 74L1235 74L1235 75L1230 75L1230 76L1235 76L1235 77L1232 77L1232 78L1239 78L1239 79L1234 79L1234 80L1237 80L1245 82L1245 83L1238 83L1238 84L1243 84L1243 85L1240 85L1240 86L1247 86L1247 87L1242 87L1242 88L1247 88L1247 89L1245 89L1245 90L1251 90L1251 91L1248 91L1248 92L1255 92L1255 93L1251 93L1251 94L1255 94L1254 96L1267 96L1267 97L1257 97L1257 98L1263 98L1263 99L1261 99L1261 100L1271 100L1271 101L1264 101L1264 102L1271 102L1271 103L1269 103L1269 104L1287 104L1287 105L1274 105L1274 106L1303 108L1303 109L1286 109L1286 110L1315 112L1312 109L1312 108L1315 108C1312.37 85.0472 1315 60.1537 1315 37C1315 27.172 1317.13 14.566 1311.15 6.0401C1304.9 -2.85529 1291.49 0 1282 0C1255.37 0 1226.29 -3.27209 1200 1z"/>
<path style="fill:#2d2d2d; stroke:none;" d="M1204 0L1205 1L1204 0z"/>
<path style="fill:#fffff7; stroke:none;" d="M1305 0L1305 1C1320.07 11.7065 1315 34.6594 1315 51L1315 189L1315 697L1315 819C1315 836.277 1319.28 855.328 1304 867L1304 868L1320 868L1320 0L1305 0z"/>
<path style="fill:#cbcbb0; stroke:none;" d="M3 1L4 2L3 1M1306 1L1307 2L1306 1z"/>
<path style="fill:#536860; stroke:none;" d="M2 2L3 3L2 2z"/>
<path style="fill:#2d2d2d; stroke:none;" d="M1208 2L1209 3L1208 2M1210 2L1211 3L1210 2M1212 2L1213 3L1212 2z"/>
<path style="fill:#536860; stroke:none;" d="M1 3L2 4L1 3M0 4L1 5L0 4z"/>
<path style="fill:#2d2d2d; stroke:none;" d="M1204 4L1205 5L1204 4M1206 4L1207 5L1206 4M1208 4L1209 5L1208 4M1206 6L1207 7L1206 6M1208 6L1209 7L1208 6z"/>
<path style="fill:#cbcbb0; stroke:none;" d="M1311 6L1312 7L1311 6z"/>
<path style="fill:#2d2d2d; stroke:none;" d="M1204 8L1205 9L1204 8M1206 8L1207 9L1206 8M1208 8L1209 9L1208 8z"/>
<path style="fill:#cbcbb0; stroke:none;" d="M1313 9L1314 10L1313 9z"/>
<path style="fill:#2d2d2d; stroke:none;" d="M1208 10L1209 11L1208 10M1210 10L1211 11L1210 10M1212 10L1213 11L1212 10z"/>
<path style="fill:#6fc5b3; stroke:none;" d="M1313 10L1314 11L1313 10z"/>
<path style="fill:#2d2d2d; stroke:none;" d="M1204 12L1205 13L1204 12M1206 12L1207 13L1206 12M1208 12L1209 13L1208 12z"/>
<path style="fill:#cbcbb0; stroke:none;" d="M1314 12L1315 13L1314 12z"/>
<path style="fill:#6fc5b3; stroke:none;" d="M1314 13L1315 14L1314 13z"/>
<path style="fill:#2d2d2d; stroke:none;" d="M1208 14L1209 15L1208 14M1210 14L1211 15L1210 14M1212 14L1213 15L1212 14M1204 16L1205 17L1204 16M1206 16L1207 17L1206 16M1208 16L1209 17L1208 16M1208 18L1209 19L1208 18M1210 18L1211 19L1210 18M1212 18L1213 19L1212 18M1204 20L1205 21L1204 20M1206 20L1207 21L1206 20M1208 20L1209 21L1208 20M1208 22L1209 23L1208 22M1210 22L1211 23L1210 22M1212 22L1213 23L1212 22M1206 24L1207 25L1206 24M1208 24L1209 25L1208 24M1212 26L1213 27L1212 26M1216 26L1217 27L1216 26M1208 28L1209 29L1208 28M1210 28L1211 29L1210 28M1212 28L1213 29L1212 28M1212 30L1213 31L1212 30M1214 30L1215 31L1214 30M1216 30L1217 31L1216 30M1208 32L1209 33L1208 32M1210 32L1211 33L1210 32M1212 32L1213 33L1212 32M1212 34L1213 35L1212 34M1214 34L1215 35L1214 34M1216 34L1217 35L1216 34M1208 36L1208 37L1211 37L1208 36M1212 36L1213 37L1212 36M1212 38L1213 39L1212 38M1214 38L1215 39L1214 38M1216 38L1217 39L1216 38M1212 40L1213 41L1212 40M1214 40L1215 41L1214 40M1216 40L1217 41L1216 40M1216 42L1217 43L1216 42M1218 42L1219 43L1218 42M1220 42L1221 43L1220 42M1212 44L1213 45L1212 44M1214 44L1215 45L1214 44M1216 44L1217 45L1216 44M1216 46L1217 47L1216 46M1218 46L1219 47L1218 46M1220 46L1221 47L1220 46M1214 48L1215 49L1214 48M1216 48L1217 49L1216 48M1218 48L1219 49L1218 48M1220 48L1221 49L1220 48M1220 50L1221 51L1220 50M1222 50L1223 51L1222 50M1224 50L1225 51L1224 50M1216 52L1217 53L1216 52M1218 52L1219 53L1218 52M1220 52L1221 53L1220 52M1220 54L1221 55L1220 54M1222 54L1223 55L1222 54M1224 54L1225 55L1224 54M1228 54L1229 55L1228 54M1220 56L1221 57L1220 56M1222 56L1223 57L1222 56M1224 56L1225 57L1224 56M1224 58L1225 59L1224 58M1226 58L1227 59L1226 58M1228 58L1229 59L1228 58M1232 58L1233 59L1232 58M1222 60L1223 61L1222 60M1224 60L1225 61L1224 60M1226 60L1227 61L1226 60M1228 60L1229 61L1228 60M1228 62L1229 63L1228 62M1230 62L1231 63L1230 62M1232 62L1233 63L1232 62M1224 64L1225 65L1224 64M1226 64L1227 65L1226 64M1228 64L1229 65L1228 64M1232 66L1233 67L1232 66M1234 66L1235 67L1234 66M1236 66L1237 67L1236 66M1228 68L1229 69L1228 68M1230 68L1231 69L1230 68M1232 68L1233 69L1232 68M1232 70L1233 71L1232 70M1234 70L1235 71L1234 70M1236 70L1237 71L1236 70M1240 70L1241 71L1240 70M1232 72L1233 73L1232 72M1234 72L1235 73L1234 72M1236 72L1237 73L1236 72M1236 74L1237 75L1236 74M1238 74L1239 75L1238 74M1240 74L1241 75L1240 74M1242 74L1243 75L1242 74M1244 74L1245 75L1244 74M1236 76L1237 77L1236 76M1238 76L1239 77L1238 76M1240 76L1241 77L1240 76M1240 78L1241 79L1240 78M1242 78L1243 79L1242 78M1244 78L1245 79L1244 78M1246 78L1247 79L1246 78M1248 78L1249 79L1248 78M1238 80L1239 81L1238 80M1240 80L1241 81L1240 80M1242 80L1243 81L1242 80M1244 80L1245 81L1244 80M1246 82L1247 83L1246 82M1248 82L1249 83L1248 82M1250 82L1251 83L1250 82M1252 82L1253 83L1252 82M1256 82L1257 83L1256 82M1244 84L1245 85L1244 84M1246 84L1247 85L1246 84M1248 84L1249 85L1248 84M1250 84L1251 85L1250 84M1252 84L1253 85L1252 84M1248 86L1248 87L1251 87L1248 86M1252 86L1253 87L1252 86M1254 86L1255 87L1254 86M1256 86L1257 87L1256 86M1260 86L1261 87L1260 86M1248 88L1249 89L1248 88M1250 88L1251 89L1250 88M1252 88L1253 89L1252 88M1254 88L1255 89L1254 88M1256 88L1257 89L1256 88M1252 90L1253 91L1252 90M1254 90L1255 91L1254 90M1256 90L1257 91L1256 90M1258 90L1259 91L1258 90M1260 90L1261 91L1260 90M1256 92L1256 93L1259 93L1256 92M1260 92L1261 93L1260 92M1262 92L1263 93L1262 92M1264 92L1265 93L1264 92M1266 92L1267 93L1266 92M1268 92L1269 93L1268 92M1272 92L1273 93L1272 92M1256 94L1257 95L1256 94M1258 94L1259 95L1258 94M1260 94L1261 95L1260 94M1262 94L1263 95L1262 94M1264 94L1265 95L1264 94M1268 94L1269 95L1268 94M1268 96L1269 97L1268 96M1270 96L1271 97L1270 96M1272 96L1273 97L1272 96M1274 96L1275 97L1274 96M1276 96L1277 97L1276 96M1278 96L1279 97L1278 96M1280 96L1281 97L1280 96M1282 96L1283 97L1282 96M1284 96L1285 97L1284 96M1288 96L1289 97L1288 96M1264 98L1265 99L1264 98M1266 98L1267 99L1266 98M1268 98L1269 99L1268 98M1270 98L1271 99L1270 98M1272 98L1273 99L1272 98M1274 98L1275 99L1274 98M1276 98L1277 99L1276 98M1280 98L1281 99L1280 98M1272 100L1272 101L1275 101L1272 100M1276 100L1277 101L1276 100M1278 100L1279 101L1278 100M1280 100L1281 101L1280 100M1282 100L1283 101L1282 100M1284 100L1285 101L1284 100M1286 100L1287 101L1286 100M1288 100L1289 101L1288 100M1290 100L1291 101L1290 100M1292 100L1293 101L1292 100M1296 100L1297 101L1296 100M1300 100L1301 101L1300 100M1304 100L1305 101L1304 100M1272 102L1273 103L1272 102M1274 102L1275 103L1274 102M1276 102L1277 103L1276 102M1278 102L1279 103L1278 102M1280 102L1281 103L1280 102M1282 102L1283 103L1282 102M1284 102L1285 103L1284 102M1288 102L1289 103L1288 102M1288 104L1288 105L1291 105L1288 104M1292 104L1293 105L1292 104M1294 104L1295 105L1294 104M1296 104L1297 105L1296 104M1298 104L1299 105L1298 104M1300 104L1301 105L1300 104M1302 104L1303 105L1302 104M1304 104L1305 105L1304 104M1306 104L1307 105L1306 104M1308 104L1309 105L1308 104M1310 104L1311 105L1310 104M1312 104L1313 105L1312 104M1314 104L1315 105L1314 104M1280 106L1280 107L1283 107L1280 106M1284 106L1285 107L1284 106M1286 106L1287 107L1286 106M1288 106L1289 107L1288 106M1290 106L1291 107L1290 106M1292 106L1293 107L1292 106M1294 106L1295 107L1294 106M1296 106L1297 107L1296 106M1298 106L1299 107L1298 106M1300 106L1301 107L1300 106M1302 106L1303 107L1302 106M1304 106L1305 107L1304 106M1306 106L1307 107L1306 106M1308 106L1309 107L1308 106M1310 106L1311 107L1310 106M1312 106L1313 107L1312 106M1314 106L1315 107L1314 106M1304 108L1304 109L1307 109L1304 108M1308 108L1308 109L1311 109L1308 108M1312 108L1312 109L1315 109L1312 108M1296 110L1296 111L1299 111L1296 110M1300 110L1301 111L1300 110M1302 110L1303 111L1302 110M1304 110L1305 111L1304 110M1306 110L1307 111L1306 110M1308 110L1309 111L1308 110M1310 110L1311 111L1310 110M1312 110L1313 111L1312 110M1314 110L1315 111L1314 110z"/>
<path style="fill:#536860; stroke:none;" d="M393 377L392 379L393 377z"/>
<path style="fill:#6fc5b3; stroke:none;" d="M394.001 378.292C380.402 380.087 380.46 403.446 385.367 412C387.186 415.173 390.818 420.376 394.999 420.168C409.06 419.468 408.655 394.205 403.775 386C401.929 382.895 398.175 377.741 394.001 378.292z"/>
<path style="fill:#536860; stroke:none;" d="M395 377L396 378L395 377M398 379L399 380L398 379M399 380L400 381L399 380M400 381L401 382L400 381M401 382L402 383L401 382M386 384L387 385L386 384M403 385L404 386L403 385M384 387L385 388L384 387M405.333 388.667L405.667 389.333L405.333 388.667M383.333 389.667L383.667 390.333L383.333 389.667M406.333 391.667L406.667 392.333L406.333 391.667M382.333 392.667L382.667 393.333L382.333 392.667M372 399L379 394L372 399z"/>
<path style="fill:#6fc5b3; stroke:none;" d="M379 394C367.575 399.376 365.593 417.768 376.185 425.508C380.004 428.298 385.518 424.28 386.083 420C386.541 416.521 382.633 412.897 381.138 410C378.426 404.745 377.954 399.72 379 394z"/>
<path style="fill:#536860; stroke:none;" d="M407 395L407 404L408 404L407 395M378 396L378 403L379 403L378 396z"/>
<path style="fill:#cbcbb0; stroke:none;" d="M576 397L577 398L576 397z"/>
<path style="fill:#fffff7; stroke:none;" d="M577 397C569.114 407.342 562.467 420.528 558.721 433C557.664 436.522 554.169 452.766 562 445L557 447C558.495 435.42 563.228 424.164 568.861 414C571.434 409.358 577.458 402.312 577 397z"/>
<path style="fill:#536860; stroke:none;" d="M578.333 397.667L578.667 398.333L578.333 397.667z"/>
<path style="fill:#6fc5b3; stroke:none;" d="M575 398L576 399L575 398M574 399L575 400L574 399M577 399L578 400L577 399z"/>
<path style="fill:#536860; stroke:none;" d="M371 400L372 401L371 400z"/>
<path style="fill:#cbcbb0; stroke:none;" d="M574 400L575 401L574 400z"/>
<path style="fill:#6fc5b3; stroke:none;" d="M576 400L577 401L576 400M573 401L574 402L573 401z"/>
<path style="fill:#536860; stroke:none;" d="M370 402L371 403L370 402z"/>
<path style="fill:#6fc5b3; stroke:none;" d="M575 402L576 403L575 402M572 403L573 404L572 403M574 403L575 404L574 403z"/>
<path style="fill:#536860; stroke:none;" d="M369 404L369 407L370 407L369 404M382.333 404.667L382.667 405.333L382.333 404.667z"/>
<path style="fill:#6fc5b3; stroke:none;" d="M889 404L890 405L889 404z"/>
<path style="fill:#fffff7; stroke:none;" d="M890 404C882.101 417.533 876.205 432.474 870.4 447C867.638 453.91 863.748 462.481 865 470C875.375 461.858 874.087 449.456 876.379 438C877.502 432.387 880.748 427.208 883 422C885.219 416.867 890.935 409.612 890 404z"/>
<path style="fill:#536860; stroke:none;" d="M379.333 405.667L379.667 406.333L379.333 405.667z"/>
<path style="fill:#6fc5b3; stroke:none;" d="M571 405L572 406L571 405M573 405L574 406L573 405z"/>
<path style="fill:#536860; stroke:none;" d="M406.333 406.667L406.667 407.333L406.333 406.667z"/>
<path style="fill:#6fc5b3; stroke:none;" d="M888 406L889 407L888 406M890 406L891 407L890 406M570 407L571 408L570 407M572 407L573 408L572 407z"/>
<path style="fill:#536860; stroke:none;" d="M380.333 408.667L380.667 409.333L380.333 408.667M383 408L384 409L383 408z"/>
<path style="fill:#6fc5b3; stroke:none;" d="M569.333 408.667L569.667 409.333L569.333 408.667M887 408L888 409L887 408M889 408L890 409L889 408z"/>
<path style="fill:#536860; stroke:none;" d="M405 409L406 410L405 409z"/>
<path style="fill:#6fc5b3; stroke:none;" d="M571 409L572 410L571 409z"/>
<path style="fill:#536860; stroke:none;" d="M381 410L382 411L381 410M384 410L385 411L384 410z"/>
<path style="fill:#6fc5b3; stroke:none;" d="M568 410L569 411L568 410M886 410L887 411L886 410M888 410L889 411L888 410z"/>
<path style="fill:#536860; stroke:none;" d="M404 411L405 412L404 411z"/>
<path style="fill:#6fc5b3; stroke:none;" d="M570 411L571 412L570 411z"/>
<path style="fill:#536860; stroke:none;" d="M382 412L383 413L382 412M385 412L386 413L385 412z"/>
<path style="fill:#6fc5b3; stroke:none;" d="M567 412L568 413L567 412M569.333 412.667L569.667 413.333L569.333 412.667M885 412L886 413L885 412M887 412L888 413L887 412z"/>
<path style="fill:#536860; stroke:none;" d="M369 413L369 416L370 416L369 413M403 413L404 414L403 413M383 414L384 415L383 414M386 414L387 415L386 414M402 414L403 415L402 414z"/>
<path style="fill:#6fc5b3; stroke:none;" d="M566 414L567 415L566 414M568.333 414.667L568.667 415.333L568.333 414.667M884 414L885 415L884 414M886 414L887 415L886 414z"/>
<path style="fill:#536860; stroke:none;" d="M384 415L385 416L384 415M387 415L388 416L387 415M385 416L386 417L385 416M388 416L389 417L388 416z"/>
<path style="fill:#6fc5b3; stroke:none;" d="M565 416L566 417L565 416M567.333 416.667L567.667 417.333L567.333 416.667M883 416L884 417L883 416M885 416L886 417L885 416z"/>
<path style="fill:#536860; stroke:none;" d="M370 417L371 418L370 417M386 417L387 418L386 417M389 417L390 418L389 417M885 417L886 418L885 417M387.333 418.667L387.667 419.333L387.333 418.667M390 418L391 419L390 418z"/>
<path style="fill:#6fc5b3; stroke:none;" d="M564 418L565 419L564 418M566.333 418.667L566.667 419.333L566.333 418.667M882 418L883 419L882 418M884.333 418.667L884.667 419.333L884.333 418.667z"/>
<path style="fill:#536860; stroke:none;" d="M371.333 419.667L371.667 420.333L371.333 419.667M391 419L392 420L391 419M397 419L398 420L397 419M634 419L635 420L634 419M396 420L397 421L396 420z"/>
<path style="fill:#6fc5b3; stroke:none;" d="M563 420L564 421L563 420M565.333 420.667L565.667 421.333L565.333 420.667z"/>
<path style="fill:#fffff7; stroke:none;" d="M634 420L617 463L618 463C622.229 452.1 627.783 435.245 639 430L630 440L630 441C635.687 438.795 639.312 435.177 640 429C635.536 429.498 633.005 430.936 631 435L630 435L634 420z"/>
<path style="fill:#cbcbb0; stroke:none;" d="M635 420L636 421L635 420M680.667 420.333L681.333 420.667L680.667 420.333z"/>
<path style="fill:#6fc5b3; stroke:none;" d="M881.333 420.667L881.667 421.333L881.333 420.667M883.333 420.667L883.667 421.333L883.333 420.667z"/>
<path style="fill:#536860; stroke:none;" d="M372 421L373 422L372 421M386 421L387 422L386 421M394 421L395 422L394 421z"/>
<path style="fill:#6fc5b3; stroke:none;" d="M633 421L634 422L633 421M635 421L636 422L635 421M679 421L680 422L679 421z"/>
<path style="fill:#fffff7; stroke:none;" d="M680 421L663 463L664 463C668.43 452.201 673.779 435.277 685 430L677 441L681 441L686 429C681.627 429.586 679.189 431.163 677 435L676 435L680 421z"/>
<path style="fill:#6fc5b3; stroke:none;" d="M681 421L682 422L681 421z"/>
<path style="fill:#536860; stroke:none;" d="M373 422L374 423L373 422M385 422L386 423L385 422z"/>
<path style="fill:#6fc5b3; stroke:none;" d="M562.333 422.667L562.667 423.333L562.333 422.667M564.333 422.667L564.667 423.333L564.333 422.667M583 422L585 424L583 422z"/>
<path style="fill:#536860; stroke:none;" d="M584 422L585 423L584 422z"/>
<path style="fill:#cbcbb0; stroke:none;" d="M679 422L680 423L679 422z"/>
<path style="fill:#6fc5b3; stroke:none;" d="M880.333 422.667L880.667 423.333L880.333 422.667z"/>
<path style="fill:#536860; stroke:none;" d="M384 423L385 424L384 423M396 423L397 424L396 423z"/>
<path style="fill:#cbcbb0; stroke:none;" d="M583 423L584 424L583 423z"/>
<path style="fill:#6fc5b3; stroke:none;" d="M632 423L633 424L632 423M634 423L635 424L634 423M678.333 423.667L678.667 424.333L678.333 423.667M680.333 423.667L680.667 424.333L680.333 423.667M882 423L883 424L882 423z"/>
<path style="fill:#536860; stroke:none;" d="M374 424L375 425L374 424M383 424L384 425L383 424M394 424L392 427L394 424z"/>
<path style="fill:#6fc5b3; stroke:none;" d="M394 437L380 438L379 430L378 430L379 438C362.479 442.654 341.352 448.057 330 462C373.736 445.128 416.893 471.029 461 472.961C482.852 473.918 508.293 465.238 515 442C473.203 459.378 437.36 437 395 437L397 424C391.728 426.909 393.779 431.842 394 437z"/>
<path style="fill:#536860; stroke:none;" d="M446 424L446 425L451 425L446 424z"/>
<path style="fill:#6fc5b3; stroke:none;" d="M414 433C431.806 439.68 458.168 442.987 477 440.424C484.579 439.392 492.69 439.177 498 433C472.185 425.62 439.17 417.161 414 433z"/>
<path style="fill:#536860; stroke:none;" d="M461 424L461 425L468 425L461 424M561 424L562 425L561 424z"/>
<path style="fill:#cbcbb0; stroke:none;" d="M632 424L633 425L632 424z"/>
<path style="fill:#536860; stroke:none;" d="M634 424L635 425L634 424M879 424L880 425L879 424M917 426L920 425L917 426z"/>
<path style="fill:#6fc5b3; stroke:none;" d="M920 424L921 425L920 424z"/>
<path style="fill:#536860; stroke:none;" d="M375 425L376 426L375 425M382 425L383 426L382 425M396 425L396 429L397 429L396 425M438 425L438 426L441 426L438 425M472.667 425.333L473.333 425.667L472.667 425.333z"/>
<path style="fill:#6fc5b3; stroke:none;" d="M561 425L562 426L561 425M563 425L564 426L563 425M631.333 425.667L631.667 426.333L631.333 425.667M633.333 425.667L633.667 426.333L633.333 425.667M879 425L880 426L879 425M881 425L882 426L881 425z"/>
<path style="fill:#fffff7; stroke:none;" d="M913 442L914 442L922 432C920.549 435.057 917.468 440.009 922 441L923 432L920 431L922 426C916.405 425.144 915.012 437.166 913 442z"/>
<path style="fill:#cbcbb0; stroke:none;" d="M921 425L922 426L921 425z"/>
<path style="fill:#536860; stroke:none;" d="M381 426L382 427L381 426M433.667 426.333L434.333 426.667L433.667 426.333M477.667 426.333L478.333 426.667L477.667 426.333M657 426L658 427L657 426z"/>
<path style="fill:#6fc5b3; stroke:none;" d="M658 426L659 427L658 426M677 426L678 427L677 426M679 426L680 427L679 426z"/>
<path style="fill:#536860; stroke:none;" d="M703 426L704 427L703 426z"/>
<path style="fill:#6fc5b3; stroke:none;" d="M704 426L705 427L704 426z"/>
<path style="fill:#cbcbb0; stroke:none;" d="M919.667 426.333L920.333 426.667L919.667 426.333z"/>
<path style="fill:#536860; stroke:none;" d="M378 427L379 428L378 427M380 427L381 428L380 427M429.667 427.333L430.333 427.667L429.667 427.333M482 427L483 428L482 427z"/>
<path style="fill:#6fc5b3; stroke:none;" d="M560 427L561 428L560 427M562 427L563 428L562 427M580 427L581 428L580 427z"/>
<path style="fill:#fffff7; stroke:none;" d="M581 427L576 439L577 439L583 428L581 427z"/>
<path style="fill:#6fc5b3; stroke:none;" d="M582 427L583 428L582 427M656 427L657 428L656 427z"/>
<path style="fill:#fffff7; stroke:none;" d="M657 427C655.741 428.639 654.449 430.25 653.379 432.025C645.141 445.684 668.948 437.07 657 427z"/>
<path style="fill:#cbcbb0; stroke:none;" d="M658 427L659 428L658 427z"/>
<path style="fill:#6fc5b3; stroke:none;" d="M702 427L703 428L702 427z"/>
<path style="fill:#fffff7; stroke:none;" d="M703 427C701.362 429.457 694.541 436.312 697 440C699.908 444.363 706.125 437.625 707 435C708.502 430.495 704.501 428.995 705 427L703 427z"/>
<path style="fill:#cbcbb0; stroke:none;" d="M804 427L803 429L804 427z"/>
<path style="fill:#6fc5b3; stroke:none;" d="M805 427L804 432L805 427z"/>
<path style="fill:#cbcbb0; stroke:none;" d="M808 427L807 429L808 427z"/>
<path style="fill:#536860; stroke:none;" d="M809 427L810 428L809 427z"/>
<path style="fill:#6fc5b3; stroke:none;" d="M878 427L879 428L878 427M880 427L881 428L880 427z"/>
<path style="fill:#536860; stroke:none;" d="M916.333 427.667L916.667 428.333L916.333 427.667z"/>
<path style="fill:#6fc5b3; stroke:none;" d="M918 427L920 429L918 427z"/>
<path style="fill:#2d2d2d; stroke:none;" d="M919 427L920 428L919 427z"/>
<path style="fill:#536860; stroke:none;" d="M425.667 428.333L426.333 428.667L425.667 428.333M485 428L486 429L485 428M583 428L584 429L583 428z"/>
<path style="fill:#6fc5b3; stroke:none;" d="M630 428L631 429L630 428M632 428L633 429L632 428z"/>
<path style="fill:#536860; stroke:none;" d="M636 428L637 429L636 428z"/>
<path style="fill:#6fc5b3; stroke:none;" d="M637.667 428.333L638.333 428.667L637.667 428.333z"/>
<path style="fill:#536860; stroke:none;" d="M655 428L656 429L655 428M658 428L659 429L658 428z"/>
<path style="fill:#6fc5b3; stroke:none;" d="M659 428L660 429L659 428M676 428L677 429L676 428M678 428L679 429L678 428z"/>
<path style="fill:#536860; stroke:none;" d="M682 428L683 429L682 428z"/>
<path style="fill:#6fc5b3; stroke:none;" d="M683.667 428.333L684.333 428.667L683.667 428.333z"/>
<path style="fill:#536860; stroke:none;" d="M701 428L702 429L701 428z"/>
<path style="fill:#6fc5b3; stroke:none;" d="M704.667 428.333L705.333 428.667L704.667 428.333z"/>
<path style="fill:#536860; stroke:none;" d="M802 428L800 431L802 428z"/>
<path style="fill:#fffff7; stroke:none;" d="M804 428L805 429L804 428M808 428L798 437L800 433L799 433L798 439L806 433C801.209 446.709 788.133 454.132 788 470C797.648 467.031 802.755 447.201 805.77 438.424C806.935 435.034 808.747 431.555 808 428z"/>
<path style="fill:#6fc5b3; stroke:none;" d="M809 428L810 429L809 428z"/>
<path style="fill:#536860; stroke:none;" d="M828 428L829 429L828 428z"/>
<path style="fill:#6fc5b3; stroke:none;" d="M829 428L830 429L829 428z"/>
<path style="fill:#536860; stroke:none;" d="M832.667 428.333L833.333 428.667L832.667 428.333M897 428L898 429L897 428z"/>
<path style="fill:#6fc5b3; stroke:none;" d="M898 428L899 429L898 428z"/>
<path style="fill:#536860; stroke:none;" d="M901 428L902 429L901 428z"/>
<path style="fill:#6fc5b3; stroke:none;" d="M902 428L903 429L902 428z"/>
<path style="fill:#cbcbb0; stroke:none;" d="M918 428L919 429L918 428z"/>
<path style="fill:#6fc5b3; stroke:none;" d="M921 428L922 429L921 428z"/>
<path style="fill:#536860; stroke:none;" d="M973.667 428.333L974.333 428.667L973.667 428.333M377 429L377 433L378 433L377 429M421.667 429.333L422.333 429.667L421.667 429.333M488 429L489 430L488 429z"/>
<path style="fill:#6fc5b3; stroke:none;" d="M559.333 429.667L559.667 430.333L559.333 429.667M561.333 429.667L561.667 430.333L561.333 429.667M579 429L580 430L579 429M582 429L583 430L582 429z"/>
<path style="fill:#536860; stroke:none;" d="M598 429L599 430L598 429M603 429L604 430L603 429z"/>
<path style="fill:#cbcbb0; stroke:none;" d="M604 429L606 431L604 429z"/>
<path style="fill:#fffff7; stroke:none;" d="M605 429L602 440L608 433L606 434L606 433L605 429z"/>
<path style="fill:#6fc5b3; stroke:none;" d="M606 429L607 430L606 429z"/>
<path style="fill:#cbcbb0; stroke:none;" d="M635 429L636 430L635 429z"/>
<path style="fill:#536860; stroke:none;" d="M657 429L658 430L657 429z"/>
<path style="fill:#6fc5b3; stroke:none;" d="M660 429L661 430L660 429M681 429L682 430L681 429z"/>
<path style="fill:#536860; stroke:none;" d="M686 429L687 430L686 429z"/>
<path style="fill:#cbcbb0; stroke:none;" d="M701 429L702 430L701 429z"/>
<path style="fill:#6fc5b3; stroke:none;" d="M703 429L702 431L703 429M706 429L707 430L706 429M751 429L752 430L751 429z"/>
<path style="fill:#cbcbb0; stroke:none;" d="M752 429L753 430L752 429z"/>
<path style="fill:#fffff7; stroke:none;" d="M745 436L747 430L746 430L743 441L755 431C750.737 428.858 747.78 432.983 745 436z"/>
<path style="fill:#6fc5b3; stroke:none;" d="M754 429L755 430L754 429z"/>
<path style="fill:#536860; stroke:none;" d="M780 429L781 430L780 429z"/>
<path style="fill:#6fc5b3; stroke:none;" d="M781.667 429.333L782.333 429.667L781.667 429.333z"/>
<path style="fill:#fffff7; stroke:none;" d="M802 429L800 432L802 429z"/>
<path style="fill:#6fc5b3; stroke:none;" d="M803 429L801 432L803 429z"/>
<path style="fill:#2d2d2d; stroke:none;" d="M799 436L806 429L799 436z"/>
<path style="fill:#6fc5b3; stroke:none;" d="M827 429L824 435L825 435L827 429z"/>
<path style="fill:#fffff7; stroke:none;" d="M828.667 429.333L829.333 429.667L828.667 429.333z"/>
<path style="fill:#6fc5b3; stroke:none;" d="M831 429L830 431L831 429z"/>
<path style="fill:#fffff7; stroke:none;" d="M832 429L822 439L824 434L823 434L821 439L822 440L829 436L830 441L832 429z"/>
<path style="fill:#6fc5b3; stroke:none;" d="M833.333 429.667L833.667 430.333L833.333 429.667M877 429L878 430L877 429M879.333 429.667L879.667 430.333L879.333 429.667M896 429L892 434L893 435L894 435L895 434L896 429z"/>
<path style="fill:#fffff7; stroke:none;" d="M894 433L899 430L894 433z"/>
<path style="fill:#6fc5b3; stroke:none;" d="M900 429L901 430L900 429z"/>
<path style="fill:#fffff7; stroke:none;" d="M901 429L892 439L893 434L892 434L891 440L898 436L898 441L899 441L901 429z"/>
<path style="fill:#cbcbb0; stroke:none;" d="M902 429L903 430L902 429z"/>
<path style="fill:#536860; stroke:none;" d="M921 429L922 430L921 429z"/>
<path style="fill:#6fc5b3; stroke:none;" d="M946 429L947 430L946 429z"/>
<path style="fill:#cbcbb0; stroke:none;" d="M947 429L948 430L947 429z"/>
<path style="fill:#fffff7; stroke:none;" d="M940 436L942 430L938 441L950 431C945.737 428.858 942.78 432.983 940 436z"/>
<path style="fill:#6fc5b3; stroke:none;" d="M949 429L950 430L949 429z"/>
<path style="fill:#cbcbb0; stroke:none;" d="M972 429L973 430L972 429z"/>
<path style="fill:#fffff7; stroke:none;" d="M969 446L970 446C970.332 442.742 971.343 439.635 975 440L976 440L973 430L975 432C975.631 430.342 974.348 428.331 972.884 430.5C971.502 432.548 968.524 443.744 969 446z"/>
<path style="fill:#536860; stroke:none;" d="M976 429L977 430L976 429M379 430L380 431L379 430M418.667 430.333L419.333 430.667L418.667 430.333M491 430L492 431L491 430z"/>
<path style="fill:#6fc5b3; stroke:none;" d="M581 430L582 431L581 430M597 430L596 433L597 433L597 430z"/>
<path style="fill:#fffff7; stroke:none;" d="M598 430L595 441L605 431L605 430L596 437L598 430z"/>
<path style="fill:#cbcbb0; stroke:none;" d="M602 430L603 431L602 430z"/>
<path style="fill:#6fc5b3; stroke:none;" d="M629 430L630 431L629 430M631 430L632 431L631 430z"/>
<path style="fill:#536860; stroke:none;" d="M633 430L634 431L633 430z"/>
<path style="fill:#6fc5b3; stroke:none;" d="M636 430L632 435L636 430z"/>
<path style="fill:#536860; stroke:none;" d="M637 430L638 431L637 430z"/>
<path style="fill:#6fc5b3; stroke:none;" d="M638.333 430.667L638.667 431.333L638.333 430.667M640.333 430.667L640.667 431.333L640.333 430.667M654 430L655 431L654 430M656 430L655 432L656 430z"/>
<path style="fill:#2d2d2d; stroke:none;" d="M657 430L653 440C656.925 437.73 659.626 434.309 657 430z"/>
<path style="fill:#6fc5b3; stroke:none;" d="M661 430L661 431L664 431L661 430z"/>
<path style="fill:#536860; stroke:none;" d="M664.667 430.333L665.333 430.667L664.667 430.333z"/>
<path style="fill:#6fc5b3; stroke:none;" d="M666 430L666 432L668 432L668 430L666 430M675.333 430.667L675.667 431.333L675.333 430.667M677.333 430.667L677.667 431.333L677.333 430.667z"/>
<path style="fill:#536860; stroke:none;" d="M679 430L680 431L679 430z"/>
<path style="fill:#cbcbb0; stroke:none;" d="M680 430L681 431L680 430M682 430L683 431L682 430z"/>
<path style="fill:#536860; stroke:none;" d="M683 430L684 431L683 430z"/>
<path style="fill:#6fc5b3; stroke:none;" d="M684.333 430.667L684.667 431.333L684.333 430.667z"/>
<path style="fill:#cbcbb0; stroke:none;" d="M686 430L687 431L686 430z"/>
<path style="fill:#6fc5b3; stroke:none;" d="M700 430L701 431L700 430z"/>
<path style="fill:#2d2d2d; stroke:none;" d="M703 430L699 440C702.979 437.73 706.051 434.264 703 430z"/>
<path style="fill:#cbcbb0; stroke:none;" d="M707 430L712 432L712 431L707 430z"/>
<path style="fill:#6fc5b3; stroke:none;" d="M708.667 430.333L709.333 430.667L708.667 430.333z"/>
<path style="fill:#536860; stroke:none;" d="M710.667 430.333L711.333 430.667L710.667 430.333z"/>
<path style="fill:#6fc5b3; stroke:none;" d="M712 430L712 432L714 432L714 430L712 430M745 430L746 431L745 430z"/>
<path style="fill:#536860; stroke:none;" d="M749 430L750 431L749 430z"/>
<path style="fill:#cbcbb0; stroke:none;" d="M750 430L751 431L750 430z"/>
<path style="fill:#536860; stroke:none;" d="M759 430L760 431L759 430M778 430L779 431L778 430z"/>
<path style="fill:#cbcbb0; stroke:none;" d="M779 430L780 431L779 430z"/>
<path style="fill:#fffff7; stroke:none;" d="M781 441L781 440C774.868 438.089 778.232 433.818 782 431L778 436L783 430C776.342 431.359 771.775 440.264 781 441z"/>
<path style="fill:#536860; stroke:none;" d="M783 430L784 431L783 430z"/>
<path style="fill:#cbcbb0; stroke:none;" d="M808 430L809 431L808 430M827 430L826 432L827 430z"/>
<path style="fill:#536860; stroke:none;" d="M828 430L830 432L828 430z"/>
<path style="fill:#2d2d2d; stroke:none;" d="M829 430L830 431L829 430z"/>
<path style="fill:#536860; stroke:none;" d="M895 433L900 431L895 433z"/>
<path style="fill:#6fc5b3; stroke:none;" d="M902 430L903 431L902 430z"/>
<path style="fill:#536860; stroke:none;" d="M917 430L918 431L917 430z"/>
<path style="fill:#cbcbb0; stroke:none;" d="M920 430L921 431L920 430z"/>
<path style="fill:#6fc5b3; stroke:none;" d="M921 430L922 431L921 430z"/>
<path style="fill:#cbcbb0; stroke:none;" d="M940 430L941 431L940 430z"/>
<path style="fill:#536860; stroke:none;" d="M944 430L945 431L944 430z"/>
<path style="fill:#cbcbb0; stroke:none;" d="M945 430L946 431L945 430z"/>
<path style="fill:#536860; stroke:none;" d="M954 430L955 431L954 430z"/>
<path style="fill:#6fc5b3; stroke:none;" d="M971.333 430.667L971.667 431.333L971.333 430.667M973 430L974 431L973 430z"/>
<path style="fill:#536860; stroke:none;" d="M974 430L973 433L974 430z"/>
<path style="fill:#cbcbb0; stroke:none;" d="M976 430L977 431L976 430z"/>
<path style="fill:#536860; stroke:none;" d="M380 431L380 437L381 437L380 431M393 431L393 435L394 435L393 431M415.667 431.333L416.333 431.667L415.667 431.333M493 431L494 432L493 431z"/>
<path style="fill:#6fc5b3; stroke:none;" d="M578 431L579 432L578 431z"/>
<path style="fill:#cbcbb0; stroke:none;" d="M601 431L602 432L601 431M603 431L604 432L603 431z"/>
<path style="fill:#536860; stroke:none;" d="M604 431L605 432L604 431z"/>
<path style="fill:#6fc5b3; stroke:none;" d="M605 431L606 432L605 431z"/>
<path style="fill:#536860; stroke:none;" d="M609 431L610 432L609 431z"/>
<path style="fill:#cbcbb0; stroke:none;" d="M610.333 431.667L610.667 432.333L610.333 431.667z"/>
<path style="fill:#fffff7; stroke:none;" d="M611 431L605 449L611 444L608 446C609.839 441.731 615.489 434.944 611 431z"/>
<path style="fill:#536860; stroke:none;" d="M613 431L614 432L613 431z"/>
<path style="fill:#2d2d2d; stroke:none;" d="M631 431L632 432L631 431z"/>
<path style="fill:#536860; stroke:none;" d="M632 431L633 432L632 431z"/>
<path style="fill:#2d2d2d; stroke:none;" d="M630 439L638 431L630 439z"/>
<path style="fill:#6fc5b3; stroke:none;" d="M653 431L654 432L653 431M658 431L659 432L658 431z"/>
<path style="fill:#cbcbb0; stroke:none;" d="M659 431L659 434L660 434L659 431M661 431L661 432L666 432L661 431z"/>
<path style="fill:#536860; stroke:none;" d="M678 431L679 432L678 431z"/>
<path style="fill:#6fc5b3; stroke:none;" d="M681 431L678 435L681 431z"/>
<path style="fill:#2d2d2d; stroke:none;" d="M676 439L684 431L676 439z"/>
<path style="fill:#6fc5b3; stroke:none;" d="M686.333 431.667L686.667 432.333L686.333 431.667M699 431L700 432L699 431z"/>
<path style="fill:#cbcbb0; stroke:none;" d="M701 431L702 432L701 431M705 431L706 432L705 431z"/>
<path style="fill:#6fc5b3; stroke:none;" d="M744 431L745 432L744 431M746 431L745 436L746 436L746 431z"/>
<path style="fill:#536860; stroke:none;" d="M748 431L749 432L748 431z"/>
<path style="fill:#cbcbb0; stroke:none;" d="M751 431L752 432L751 431z"/>
<path style="fill:#536860; stroke:none;" d="M752 431L753 432L752 431z"/>
<path style="fill:#6fc5b3; stroke:none;" d="M753 431L755 433L753 431z"/>
<path style="fill:#cbcbb0; stroke:none;" d="M754 431L755 432L754 431z"/>
<path style="fill:#536860; stroke:none;" d="M757 431L758 432L757 431z"/>
<path style="fill:#cbcbb0; stroke:none;" d="M758.333 431.667L758.667 432.333L758.333 431.667z"/>
<path style="fill:#fffff7; stroke:none;" d="M759 431L753 449L760 443L756 446C757.727 441.851 763.189 434.723 759 431z"/>
<path style="fill:#536860; stroke:none;" d="M761 431L762 432L761 431z"/>
<path style="fill:#6fc5b3; stroke:none;" d="M777 431L778 432L777 431M780 431L777 435L780 431z"/>
<path style="fill:#cbcbb0; stroke:none;" d="M781 431L782 432L781 431z"/>
<path style="fill:#6fc5b3; stroke:none;" d="M783 431L784 432L783 431M808 431L809 432L808 431z"/>
<path style="fill:#2d2d2d; stroke:none;" d="M827 431L823 438L829 431L827 431z"/>
<path style="fill:#6fc5b3; stroke:none;" d="M876 431L877 432L876 431z"/>
<path style="fill:#cbcbb0; stroke:none;" d="M878 431L879 432L878 431z"/>
<path style="fill:#2d2d2d; stroke:none;" d="M892 438L899 431L892 438z"/>
<path style="fill:#6fc5b3; stroke:none;" d="M922 431L923 432L922 431M939 431L940 432L939 431M941 431L940 436L941 436L941 431z"/>
<path style="fill:#536860; stroke:none;" d="M943 431L944 432L943 431z"/>
<path style="fill:#cbcbb0; stroke:none;" d="M946 431L947 432L946 431z"/>
<path style="fill:#536860; stroke:none;" d="M947 431L948 432L947 431z"/>
<path style="fill:#6fc5b3; stroke:none;" d="M948 431L948 437C950.145 434.573 950.101 433.47 948 431z"/>
<path style="fill:#cbcbb0; stroke:none;" d="M949 431L950 432L949 431z"/>
<path style="fill:#536860; stroke:none;" d="M952 431L953 432L952 431z"/>
<path style="fill:#cbcbb0; stroke:none;" d="M953.333 431.667L953.667 432.333L953.333 431.667z"/>
<path style="fill:#fffff7; stroke:none;" d="M954 431L948 449L955 443L950 446C952.608 442.337 958.354 434.87 954 431z"/>
<path style="fill:#536860; stroke:none;" d="M956 431L957 432L956 431z"/>
<path style="fill:#6fc5b3; stroke:none;" d="M976 431L977 432L976 431z"/>
<path style="fill:#536860; stroke:none;" d="M983 431L984 432L983 431M413 432L413 434L415 434L413 432M495.667 432.333L496.333 432.667L495.667 432.333z"/>
<path style="fill:#6fc5b3; stroke:none;" d="M558.333 432.667L558.667 433.333L558.333 432.667M560 432L561 433L560 432M580 432L581 433L580 432M587 432L582 439L587 432z"/>
<path style="fill:#536860; stroke:none;" d="M588 432L589 433L588 432z"/>
<path style="fill:#6fc5b3; stroke:none;" d="M598 432L597 434L597 435C599.158 434.022 599.501 433.812 598 432z"/>
<path style="fill:#cbcbb0; stroke:none;" d="M600 432L601 433L600 432z"/>
<path style="fill:#6fc5b3; stroke:none;" d="M602 432L603 433L602 432M606 432L607 433L606 432z"/>
<path style="fill:#cbcbb0; stroke:none;" d="M608.333 432.667L608.667 433.333L608.333 432.667z"/>
<path style="fill:#fffff7; stroke:none;" d="M609 432L610 433L609 432z"/>
<path style="fill:#536860; stroke:none;" d="M611.333 432.667L611.667 433.333L611.333 432.667z"/>
<path style="fill:#cbcbb0; stroke:none;" d="M613.333 432.667L613.667 433.333L613.333 432.667z"/>
<path style="fill:#6fc5b3; stroke:none;" d="M628.333 432.667L628.667 433.333L628.333 432.667M630 432L630 435L631 435L630 432z"/>
<path style="fill:#536860; stroke:none;" d="M631 432L632 433L631 432z"/>
<path style="fill:#6fc5b3; stroke:none;" d="M644 432L640 438L644 432z"/>
<path style="fill:#536860; stroke:none;" d="M645 432L646 433L645 432M652 432L653 433L652 432M661 432L662 433L661 432z"/>
<path style="fill:#2d2d2d; stroke:none;" d="M677 432L678 433L677 432z"/>
<path style="fill:#cbcbb0; stroke:none;" d="M690 432L686 436L686 437L690 432z"/>
<path style="fill:#536860; stroke:none;" d="M691 432L692 433L691 432z"/>
<path style="fill:#6fc5b3; stroke:none;" d="M705 432L706 433L705 432z"/>
<path style="fill:#536860; stroke:none;" d="M707 432L708 433L707 432z"/>
<path style="fill:#cbcbb0; stroke:none;" d="M744 432L745 433L744 432z"/>
<path style="fill:#6fc5b3; stroke:none;" d="M750 432L751 433L750 432z"/>
<path style="fill:#fffff7; stroke:none;" d="M753 432L750 440L751 440L756 433L753 432z"/>
<path style="fill:#536860; stroke:none;" d="M755 432L756 433L755 432z"/>
<path style="fill:#cbcbb0; stroke:none;" d="M756.333 432.667L756.667 433.333L756.333 432.667z"/>
<path style="fill:#fffff7; stroke:none;" d="M757 432L758 433L757 432z"/>
<path style="fill:#6fc5b3; stroke:none;" d="M759 432L759 435L760 435L759 432z"/>
<path style="fill:#cbcbb0; stroke:none;" d="M761.333 432.667L761.667 433.333L761.333 432.667z"/>
<path style="fill:#6fc5b3; stroke:none;" d="M776 432L777 433L776 432M790 432L787 436L790 432M799 432L800 433L799 432z"/>
<path style="fill:#cbcbb0; stroke:none;" d="M800 432L801 433L800 432z"/>
<path style="fill:#536860; stroke:none;" d="M803 432L804 433L803 432z"/>
<path style="fill:#fffff7; stroke:none;" d="M825 432L824 434L825 432z"/>
<path style="fill:#cbcbb0; stroke:none;" d="M829 432L830 433L829 432z"/>
<path style="fill:#6fc5b3; stroke:none;" d="M832 432L833 433L832 432z"/>
<path style="fill:#cbcbb0; stroke:none;" d="M876 432L877 433L876 432z"/>
<path style="fill:#6fc5b3; stroke:none;" d="M878 432L879 433L878 432M884 432L881 436L884 436L885 435L884 432z"/>
<path style="fill:#cbcbb0; stroke:none;" d="M898 432L899 433L898 432z"/>
<path style="fill:#6fc5b3; stroke:none;" d="M901 432L902 433L901 432M917 432L918 433L917 432M919.667 432.333L920.333 432.667L919.667 432.333z"/>
<path style="fill:#cbcbb0; stroke:none;" d="M921 432L922 433L921 432z"/>
<path style="fill:#536860; stroke:none;" d="M923 432L924 433L923 432M930 432L931 433L930 432z"/>
<path style="fill:#6fc5b3; stroke:none;" d="M945 432L946 433L945 432z"/>
<path style="fill:#fffff7; stroke:none;" d="M948 432L945 440L946 440L948 432z"/>
<path style="fill:#536860; stroke:none;" d="M950 432L951 433L950 432z"/>
<path style="fill:#cbcbb0; stroke:none;" d="M951.333 432.667L951.667 433.333L951.333 432.667z"/>
<path style="fill:#fffff7; stroke:none;" d="M952 432L953 433L952 432z"/>
<path style="fill:#6fc5b3; stroke:none;" d="M954 432L954 435L955 435L954 432M956 432L957 433L956 432z"/>
<path style="fill:#536860; stroke:none;" d="M971 432L972 433L971 432z"/>
<path style="fill:#6fc5b3; stroke:none;" d="M975 432L976 433L975 432z"/>
<path style="fill:#536860; stroke:none;" d="M980 432L982 434L980 432z"/>
<path style="fill:#cbcbb0; stroke:none;" d="M981 432L982 433L981 432z"/>
<path style="fill:#fffff7; stroke:none;" d="M982 432L983 433L982 432z"/>
<path style="fill:#6fc5b3; stroke:none;" d="M983 432L984 433L983 432z"/>
<path style="fill:#536860; stroke:none;" d="M395 433L395 437L399 437L399 436L395 433M498 433L499 434L498 433M560 433L561 434L560 433z"/>
<path style="fill:#6fc5b3; stroke:none;" d="M577 433L578 434L577 433M579 433L580 434L579 433z"/>
<path style="fill:#2d2d2d; stroke:none;" d="M598 433L599 434L598 433z"/>
<path style="fill:#6fc5b3; stroke:none;" d="M601 433L602 434L601 433M604 433L605 434L604 433z"/>
<path style="fill:#536860; stroke:none;" d="M606 433L607 434L606 433M609 433L610 434L609 433z"/>
<path style="fill:#6fc5b3; stroke:none;" d="M637 433L638 434L637 433M639 433L640 434L639 433z"/>
<path style="fill:#cbcbb0; stroke:none;" d="M644 433L645 434L644 433M652 433L653 434L652 433z"/>
<path style="fill:#6fc5b3; stroke:none;" d="M654 433L655 434L654 433M674 433L675 434L674 433M676.333 433.667L676.667 434.333L676.333 433.667z"/>
<path style="fill:#cbcbb0; stroke:none;" d="M677 433L678 434L677 433z"/>
<path style="fill:#6fc5b3; stroke:none;" d="M683 433L684 434L683 433M685 433L686 434L685 433M689 433L690 434L689 433M698 433L699 434L698 433M700 433L701 434L700 433z"/>
<path style="fill:#cbcbb0; stroke:none;" d="M705 433L706 434L705 433z"/>
<path style="fill:#6fc5b3; stroke:none;" d="M743.333 433.667L743.667 434.333L743.333 433.667z"/>
<path style="fill:#2d2d2d; stroke:none;" d="M746 433L747 434L746 433z"/>
<path style="fill:#cbcbb0; stroke:none;" d="M747 433L748 434L747 433z"/>
<path style="fill:#6fc5b3; stroke:none;" d="M749 433L750 434L749 433M752 433L753 434L752 433z"/>
<path style="fill:#536860; stroke:none;" d="M754 433L755 434L754 433M757 433L758 434L757 433M782 433L783 434L782 433z"/>
<path style="fill:#cbcbb0; stroke:none;" d="M790 433L791 434L790 433z"/>
<path style="fill:#6fc5b3; stroke:none;" d="M798 433L799 434L798 433z"/>
<path style="fill:#536860; stroke:none;" d="M800 433L801 434L800 433z"/>
<path style="fill:#cbcbb0; stroke:none;" d="M805 433L806 434L805 433z"/>
<path style="fill:#6fc5b3; stroke:none;" d="M807.333 433.667L807.667 434.333L807.333 433.667z"/>
<path style="fill:#536860; stroke:none;" d="M825 433L826 434L825 433z"/>
<path style="fill:#cbcbb0; stroke:none;" d="M828 433L829 434L828 433z"/>
<path style="fill:#6fc5b3; stroke:none;" d="M875.333 433.667L875.667 434.333L875.333 433.667z"/>
<path style="fill:#fffff7; stroke:none;" d="M884 433L885 434L884 433z"/>
<path style="fill:#536860; stroke:none;" d="M885 433L886 434L885 433z"/>
<path style="fill:#fffff7; stroke:none;" d="M893 433L894 434L893 433z"/>
<path style="fill:#6fc5b3; stroke:none;" d="M897 433L898 434L897 433M918 433L919 434L918 433M929 433L926 437L929 433z"/>
<path style="fill:#cbcbb0; stroke:none;" d="M930 433L931 434L930 433z"/>
<path style="fill:#6fc5b3; stroke:none;" d="M938.333 433.667L938.667 434.333L938.333 433.667z"/>
<path style="fill:#2d2d2d; stroke:none;" d="M941 433L942 434L941 433z"/>
<path style="fill:#cbcbb0; stroke:none;" d="M942 433L943 434L942 433z"/>
<path style="fill:#6fc5b3; stroke:none;" d="M944 433L945 434L944 433M947 433L948 434L947 433z"/>
<path style="fill:#fffff7; stroke:none;" d="M950 433L951 434L950 433z"/>
<path style="fill:#536860; stroke:none;" d="M952 433L953 434L952 433z"/>
<path style="fill:#cbcbb0; stroke:none;" d="M956 433L957 434L956 433M973 433L974 434L973 433z"/>
<path style="fill:#536860; stroke:none;" d="M977 433L978 434L977 433z"/>
<path style="fill:#6fc5b3; stroke:none;" d="M978 433L979 434L978 433z"/>
<path style="fill:#fffff7; stroke:none;" d="M979 433L976 435L976 436L980 434L979 433z"/>
<path style="fill:#cbcbb0; stroke:none;" d="M980 433L981 434L980 433z"/>
<path style="fill:#536860; stroke:none;" d="M417.667 434.333L418.333 434.667L417.667 434.333M497 434L498 435L497 434M579 434L580 435L579 434z"/>
<path style="fill:#6fc5b3; stroke:none;" d="M595 434L596 435L595 434z"/>
<path style="fill:#cbcbb0; stroke:none;" d="M600 434L601 435L600 434M607 434L608 435L607 434z"/>
<path style="fill:#6fc5b3; stroke:none;" d="M611 434L612 435L611 434M613 434L614 435L613 434M636 434L637 435L636 434z"/>
<path style="fill:#cbcbb0; stroke:none;" d="M643 434L644 435L643 434z"/>
<path style="fill:#6fc5b3; stroke:none;" d="M651 434L652 435L651 434M653 434L654 435L653 434M658.333 434.667L658.667 435.333L658.333 434.667M660.333 434.667L660.667 435.333L660.333 434.667M682 434L683 435L682 434M688 434L689 435L688 434M697.333 434.667L697.667 435.333L697.333 434.667z"/>
<path style="fill:#cbcbb0; stroke:none;" d="M699 434L700 435L699 434z"/>
<path style="fill:#6fc5b3; stroke:none;" d="M748 434L749 435L748 434M751.333 434.667L751.667 435.333L751.333 434.667M755 434L756 435L755 434M761 434L762 435L761 434M775 434L776 435L775 434z"/>
<path style="fill:#cbcbb0; stroke:none;" d="M778 434L779 435L778 434z"/>
<path style="fill:#536860; stroke:none;" d="M781 434L782 435L781 434z"/>
<path style="fill:#cbcbb0; stroke:none;" d="M789 434L790 435L789 434z"/>
<path style="fill:#536860; stroke:none;" d="M797 434L798 435L797 434z"/>
<path style="fill:#6fc5b3; stroke:none;" d="M799 434L800 435L799 434z"/>
<path style="fill:#cbcbb0; stroke:none;" d="M802 434L803 435L802 434z"/>
<path style="fill:#6fc5b3; stroke:none;" d="M804 434L803 435L804 438L805 438L806 435L804 434z"/>
<path style="fill:#536860; stroke:none;" d="M813 434L812 436L812 437C814.158 436.022 814.501 435.812 813 434M822 434L823 435L822 434z"/>
<path style="fill:#6fc5b3; stroke:none;" d="M827 434L828 435L827 434M831 434L832 435L831 434M877 434L878 435L877 434z"/>
<path style="fill:#fffff7; stroke:none;" d="M883 434L884 435L883 434z"/>
<path style="fill:#6fc5b3; stroke:none;" d="M896 434L897 435L896 434M900 434L901 435L900 434M916 434L917 435L916 434M920.333 434.667L920.667 435.333L920.333 434.667M922.333 434.667L922.667 435.333L922.333 434.667z"/>
<path style="fill:#fffff7; stroke:none;" d="M929 434L930 435L929 434z"/>
<path style="fill:#6fc5b3; stroke:none;" d="M943 434L944 435L943 434M946.333 434.667L946.667 435.333L946.333 434.667M956 434L957 435L956 434M972 434L973 435L972 434z"/>
<path style="fill:#536860; stroke:none;" d="M974 434L975 435L974 434z"/>
<path style="fill:#6fc5b3; stroke:none;" d="M976 434L977 435L976 434z"/>
<path style="fill:#536860; stroke:none;" d="M979 434L980 435L979 434M422.667 435.333L423.333 435.667L422.667 435.333M496 435L497 436L496 435z"/>
<path style="fill:#6fc5b3; stroke:none;" d="M557.333 435.667L557.667 436.333L557.333 435.667M559 435L560 436L559 435z"/>
<path style="fill:#536860; stroke:none;" d="M567.667 435.333L568.333 435.667L567.667 435.333z"/>
<path style="fill:#6fc5b3; stroke:none;" d="M576 435L577 436L576 435M578 435L579 436L578 435z"/>
<path style="fill:#cbcbb0; stroke:none;" d="M584 435L585 436L584 435z"/>
<path style="fill:#536860; stroke:none;" d="M597 435L598 436L597 435z"/>
<path style="fill:#6fc5b3; stroke:none;" d="M603 435L604 436L603 435z"/>
<path style="fill:#cbcbb0; stroke:none;" d="M606 435L607 436L606 435z"/>
<path style="fill:#536860; stroke:none;" d="M613 435L614 436L613 435z"/>
<path style="fill:#6fc5b3; stroke:none;" d="M627 435L628 436L627 435z"/>
<path style="fill:#cbcbb0; stroke:none;" d="M631 435L632 436L631 435z"/>
<path style="fill:#536860; stroke:none;" d="M635 435L636 436L635 435M638 435L640 437L638 435z"/>
<path style="fill:#6fc5b3; stroke:none;" d="M673 435L674 436L673 435z"/>
<path style="fill:#536860; stroke:none;" d="M681 435L682 436L681 435z"/>
<path style="fill:#6fc5b3; stroke:none;" d="M684 435L685 436L684 435M687 435L688 436L687 435M699 435L700 436L699 435M704 435L705 436L704 435M706 435L707 436L706 435M754 435L755 436L754 435z"/>
<path style="fill:#cbcbb0; stroke:none;" d="M775 435L776 436L775 435z"/>
<path style="fill:#536860; stroke:none;" d="M777 435L778 436L777 435z"/>
<path style="fill:#cbcbb0; stroke:none;" d="M779 435L780 436L779 435z"/>
<path style="fill:#536860; stroke:none;" d="M780 435L781 436L780 435z"/>
<path style="fill:#cbcbb0; stroke:none;" d="M788 435L789 436L788 435z"/>
<path style="fill:#6fc5b3; stroke:none;" d="M797 435L798 436L797 435z"/>
<path style="fill:#536860; stroke:none;" d="M800 435L801 436L800 435z"/>
<path style="fill:#cbcbb0; stroke:none;" d="M801 435L802 436L801 435z"/>
<path style="fill:#2d2d2d; stroke:none;" d="M804 435L805 436L804 435z"/>
<path style="fill:#536860; stroke:none;" d="M810 435L811 436L810 435z"/>
<path style="fill:#cbcbb0; stroke:none;" d="M811.333 435.667L811.667 436.333L811.333 435.667z"/>
<path style="fill:#fffff7; stroke:none;" d="M812.667 435.333L813.333 435.667L812.667 435.333z"/>
<path style="fill:#cbcbb0; stroke:none;" d="M822 435L823 436L822 435z"/>
<path style="fill:#6fc5b3; stroke:none;" d="M826 435L827 436L826 435M838 435L836 439L838 435z"/>
<path style="fill:#fffff7; stroke:none;" d="M882 435L881 437L882 435z"/>
<path style="fill:#6fc5b3; stroke:none;" d="M891 435L892 436L891 435M895 435L896 436L895 435M907 435L905 439L907 435M917 435L918 436L917 435z"/>
<path style="fill:#cbcbb0; stroke:none;" d="M928 435L929 436L928 435M974 435L975 438L976 438L976 435L974 435z"/>
<path style="fill:#6fc5b3; stroke:none;" d="M977 435L978 436L977 435z"/>
<path style="fill:#536860; stroke:none;" d="M392.667 436.333L393.333 436.667L392.667 436.333M427.667 436.333L428.333 436.667L427.667 436.333M494 436L495 437L494 436M559 436L560 437L559 436z"/>
<path style="fill:#6fc5b3; stroke:none;" d="M566 436L565 438L565 439C567.158 438.022 567.501 437.812 566 436z"/>
<path style="fill:#fffff7; stroke:none;" d="M567 436L568 437L567 436z"/>
<path style="fill:#536860; stroke:none;" d="M582 436L581 438L582 436z"/>
<path style="fill:#cbcbb0; stroke:none;" d="M583 436L584 437L583 436z"/>
<path style="fill:#536860; stroke:none;" d="M594 436L595 437L594 436z"/>
<path style="fill:#6fc5b3; stroke:none;" d="M596 436L597 437L596 436z"/>
<path style="fill:#cbcbb0; stroke:none;" d="M597 436L598 437L597 436z"/>
<path style="fill:#6fc5b3; stroke:none;" d="M599 436L600 437L599 436z"/>
<path style="fill:#cbcbb0; stroke:none;" d="M605 436L606 437L605 436z"/>
<path style="fill:#6fc5b3; stroke:none;" d="M610 436L611 437L610 436z"/>
<path style="fill:#536860; stroke:none;" d="M617 436L616 438L617 436z"/>
<path style="fill:#fffff7; stroke:none;" d="M618 436L616 439L618 436z"/>
<path style="fill:#536860; stroke:none;" d="M619 436L620 437L619 436M631 436L632 437L631 436M634 436L635 437L634 436z"/>
<path style="fill:#6fc5b3; stroke:none;" d="M637 436L635 440L636 440L639 438L637 436z"/>
<path style="fill:#2d2d2d; stroke:none;" d="M638 436L639 437L638 436z"/>
<path style="fill:#cbcbb0; stroke:none;" d="M640 436L641 437L640 436z"/>
<path style="fill:#6fc5b3; stroke:none;" d="M650 436L650 439L651 439L650 436M652.333 436.667L652.667 437.333L652.333 436.667M657 436L658 437L657 436M677 436L678 437L677 436M683 436L681 440L682 440L683 436z"/>
<path style="fill:#cbcbb0; stroke:none;" d="M698 436L699 437L698 436z"/>
<path style="fill:#536860; stroke:none;" d="M703 436L704 437L703 436z"/>
<path style="fill:#6fc5b3; stroke:none;" d="M742.333 436.667L742.667 437.333L742.333 436.667M744 436L745 437L744 436M747 436L748 437L747 436M750.333 436.667L750.667 437.333L750.333 436.667M753 436L754 437L753 436M758 436L759 437L758 436z"/>
<path style="fill:#cbcbb0; stroke:none;" d="M760 436L761 437L760 436z"/>
<path style="fill:#6fc5b3; stroke:none;" d="M765 436L760 444C762.903 441.926 766.338 439.719 765 436z"/>
<path style="fill:#fffff7; stroke:none;" d="M766 436L767 437L766 436z"/>
<path style="fill:#cbcbb0; stroke:none;" d="M776 436L776 439L777 439L776 436M786.667 436.333L787.333 436.667L786.667 436.333M798 436L799 437L798 436z"/>
<path style="fill:#536860; stroke:none;" d="M799 436L800 437L799 436z"/>
<path style="fill:#6fc5b3; stroke:none;" d="M802 436L803 437L802 436M806 436L807 437L806 436M809 436L810 437L809 436z"/>
<path style="fill:#fffff7; stroke:none;" d="M810 436L811 437L810 436z"/>
<path style="fill:#6fc5b3; stroke:none;" d="M821 436L822 437L821 436M823 436L824 437L823 436M825 436L826 437L825 436z"/>
<path style="fill:#cbcbb0; stroke:none;" d="M828 436L829 437L828 436z"/>
<path style="fill:#6fc5b3; stroke:none;" d="M830.333 436.667L830.667 437.333L830.333 436.667z"/>
<path style="fill:#536860; stroke:none;" d="M836 436L835 438L836 436z"/>
<path style="fill:#cbcbb0; stroke:none;" d="M837 436L838 437L837 436z"/>
<path style="fill:#6fc5b3; stroke:none;" d="M873 436L874 437L873 436z"/>
<path style="fill:#cbcbb0; stroke:none;" d="M874 436L875 437L874 436z"/>
<path style="fill:#6fc5b3; stroke:none;" d="M876 436L876 438L878 438L876 436z"/>
<path style="fill:#536860; stroke:none;" d="M879 436L880 437L879 436z"/>
<path style="fill:#cbcbb0; stroke:none;" d="M880.333 436.667L880.667 437.333L880.333 436.667z"/>
<path style="fill:#536860; stroke:none;" d="M882 436L883 437L882 436z"/>
<path style="fill:#6fc5b3; stroke:none;" d="M890.333 436.667L890.667 437.333L890.333 436.667M892 436L893 437L892 436M894 436L895 437L894 436M897.333 436.667L897.667 437.333L897.333 436.667M899.333 436.667L899.667 437.333L899.333 436.667z"/>
<path style="fill:#cbcbb0; stroke:none;" d="M906 436L907 437L906 436z"/>
<path style="fill:#6fc5b3; stroke:none;" d="M915 436L916 437L915 436z"/>
<path style="fill:#cbcbb0; stroke:none;" d="M927 436L928 437L927 436z"/>
<path style="fill:#6fc5b3; stroke:none;" d="M937.333 436.667L937.667 437.333L937.333 436.667M939 436L940 437L939 436z"/>
<path style="fill:#536860; stroke:none;" d="M942 436L943 437L942 436z"/>
<path style="fill:#6fc5b3; stroke:none;" d="M945.333 436.667L945.667 437.333L945.333 436.667M953 436L954 437L953 436z"/>
<path style="fill:#cbcbb0; stroke:none;" d="M955 436L956 437L955 436z"/>
<path style="fill:#6fc5b3; stroke:none;" d="M960 436L955 444C957.903 441.926 961.338 439.719 960 436z"/>
<path style="fill:#fffff7; stroke:none;" d="M961 436L962 437L961 436z"/>
<path style="fill:#6fc5b3; stroke:none;" d="M973 436L974 437L973 436z"/>
<path style="fill:#536860; stroke:none;" d="M976 436L977 437L976 436M378 437L379 438L378 437M382 437L382 438L385 438L382 437M408 437L408 438L412 438L408 437M433 437L433 438L436 438L433 437M492 437L493 438L492 437z"/>
<path style="fill:#cbcbb0; stroke:none;" d="M557 437L558 438L557 437z"/>
<path style="fill:#fffff7; stroke:none;" d="M566 437L567 438L566 437z"/>
<path style="fill:#6fc5b3; stroke:none;" d="M575 437L576 438L575 437M577 437L578 438L577 437z"/>
<path style="fill:#fffff7; stroke:none;" d="M582 437L583 438L582 437z"/>
<path style="fill:#6fc5b3; stroke:none;" d="M594.333 437.667L594.667 438.333L594.333 437.667M598 437L599 438L598 437M602 437L603 438L602 437M612 437L613 438L612 437M618 437L619 438L618 437M626 437L627 438L626 437M630 437L631 438L630 437z"/>
<path style="fill:#536860; stroke:none;" d="M633 437L634 438L633 437z"/>
<path style="fill:#2d2d2d; stroke:none;" d="M637 437L638 438L637 437z"/>
<path style="fill:#fffff7; stroke:none;" d="M639 437L638 439L639 437z"/>
<path style="fill:#6fc5b3; stroke:none;" d="M659 437L660 438L659 437M672.333 437.667L672.667 438.333L672.333 437.667M676 437L677 438L676 437z"/>
<path style="fill:#536860; stroke:none;" d="M679 437L680 438L679 437z"/>
<path style="fill:#2d2d2d; stroke:none;" d="M683 437L682 439L683 437z"/>
<path style="fill:#536860; stroke:none;" d="M684 437L684 440L685 440L684 437z"/>
<path style="fill:#fffff7; stroke:none;" d="M685 437L686 438L685 437z"/>
<path style="fill:#6fc5b3; stroke:none;" d="M686 437L687 438L686 437M696.333 437.667L696.667 438.333L696.333 437.667M698 437L699 438L698 437z"/>
<path style="fill:#cbcbb0; stroke:none;" d="M703 437L704 438L703 437z"/>
<path style="fill:#6fc5b3; stroke:none;" d="M705 437L706 438L705 437M746 437L747 438L746 437z"/>
<path style="fill:#cbcbb0; stroke:none;" d="M752 437L753 438L752 437z"/>
<path style="fill:#6fc5b3; stroke:none;" d="M760 437L761 438L760 437z"/>
<path style="fill:#536860; stroke:none;" d="M764 437L763 439L764 437z"/>
<path style="fill:#fffff7; stroke:none;" d="M765 437L766 438L765 437z"/>
<path style="fill:#536860; stroke:none;" d="M774 437L775 438L774 437M784 437L785 438L784 437z"/>
<path style="fill:#fffff7; stroke:none;" d="M785 437L784 439L785 437z"/>
<path style="fill:#6fc5b3; stroke:none;" d="M786 437L787 438L786 437z"/>
<path style="fill:#536860; stroke:none;" d="M796 437L797 438L796 437z"/>
<path style="fill:#6fc5b3; stroke:none;" d="M801 437L802 438L801 437z"/>
<path style="fill:#2d2d2d; stroke:none;" d="M806 437L807 438L806 437z"/>
<path style="fill:#536860; stroke:none;" d="M807 437L809 439L807 437z"/>
<path style="fill:#fffff7; stroke:none;" d="M808 437L809 438L808 437z"/>
<path style="fill:#cbcbb0; stroke:none;" d="M809 437L810 438L809 437z"/>
<path style="fill:#536860; stroke:none;" d="M810 437L811 438L810 437z"/>
<path style="fill:#6fc5b3; stroke:none;" d="M824 437L825 438L824 437z"/>
<path style="fill:#536860; stroke:none;" d="M827 437L828 438L827 437z"/>
<path style="fill:#6fc5b3; stroke:none;" d="M828 437L829 438L828 437z"/>
<path style="fill:#fffff7; stroke:none;" d="M836 437L837 438L836 437z"/>
<path style="fill:#cbcbb0; stroke:none;" d="M873 437L874 438L873 437M878 437L876 438L876 439L878 437z"/>
<path style="fill:#fffff7; stroke:none;" d="M879 437L880 438L879 437z"/>
<path style="fill:#6fc5b3; stroke:none;" d="M893 437L894 438L893 437z"/>
<path style="fill:#536860; stroke:none;" d="M896 437L897 438L896 437M904 437L905 438L904 437z"/>
<path style="fill:#cbcbb0; stroke:none;" d="M905 437L906 438L905 437z"/>
<path style="fill:#6fc5b3; stroke:none;" d="M916 437L917 438L916 437M919 437L920 438L919 437M921.333 437.667L921.667 438.333L921.333 437.667z"/>
<path style="fill:#cbcbb0; stroke:none;" d="M925.667 437.333L926.333 437.667L925.667 437.333z"/>
<path style="fill:#6fc5b3; stroke:none;" d="M941 437L942 438L941 437z"/>
<path style="fill:#cbcbb0; stroke:none;" d="M947 437L948 438L947 437z"/>
<path style="fill:#6fc5b3; stroke:none;" d="M955 437L956 438L955 437z"/>
<path style="fill:#536860; stroke:none;" d="M959 437L958 439L959 437z"/>
<path style="fill:#fffff7; stroke:none;" d="M960 437L961 438L960 437z"/>
<path style="fill:#6fc5b3; stroke:none;" d="M972 437L973 438L972 437z"/>
<path style="fill:#536860; stroke:none;" d="M376.667 438.333L377.333 438.667L376.667 438.333M415 438L415 439L418 439L415 438M439 438L439 439L442 439L439 438M489 438L490 439L489 438z"/>
<path style="fill:#6fc5b3; stroke:none;" d="M558.333 438.667L558.667 439.333L558.333 438.667z"/>
<path style="fill:#cbcbb0; stroke:none;" d="M575 438L575 441L577 440L577 439L575 438z"/>
<path style="fill:#536860; stroke:none;" d="M579 438L580 439L579 438z"/>
<path style="fill:#cbcbb0; stroke:none;" d="M580.333 438.667L580.667 439.333L580.333 438.667z"/>
<path style="fill:#fffff7; stroke:none;" d="M581 438L582 439L581 438z"/>
<path style="fill:#6fc5b3; stroke:none;" d="M601 438L603 441L601 438z"/>
<path style="fill:#536860; stroke:none;" d="M604 438L605 439L604 438z"/>
<path style="fill:#6fc5b3; stroke:none;" d="M609 438L610 439L609 438M617 438L618 439L617 438z"/>
<path style="fill:#cbcbb0; stroke:none;" d="M629 438L630 439L629 438z"/>
<path style="fill:#6fc5b3; stroke:none;" d="M632 438L633 439L632 438z"/>
<path style="fill:#536860; stroke:none;" d="M636 438L637 439L636 438z"/>
<path style="fill:#cbcbb0; stroke:none;" d="M637.333 438.667L637.667 439.333L637.333 438.667z"/>
<path style="fill:#536860; stroke:none;" d="M639 438L640 439L639 438M652 438L653 439L652 438z"/>
<path style="fill:#cbcbb0; stroke:none;" d="M656 438L657 439L656 438z"/>
<path style="fill:#6fc5b3; stroke:none;" d="M658 438L659 439L658 438z"/>
<path style="fill:#536860; stroke:none;" d="M678 438L679 439L678 438z"/>
<path style="fill:#cbcbb0; stroke:none;" d="M683.333 438.667L683.667 439.333L683.333 438.667z"/>
<path style="fill:#fffff7; stroke:none;" d="M684 438L685 439L684 438z"/>
<path style="fill:#536860; stroke:none;" d="M698 438L699 439L698 438z"/>
<path style="fill:#6fc5b3; stroke:none;" d="M702 438L703 439L702 438M704 438L705 439L704 438z"/>
<path style="fill:#cbcbb0; stroke:none;" d="M742.333 438.667L742.667 439.333L742.333 438.667z"/>
<path style="fill:#6fc5b3; stroke:none;" d="M749 438L750 439L749 438z"/>
<path style="fill:#536860; stroke:none;" d="M752 438L753 439L752 438z"/>
<path style="fill:#6fc5b3; stroke:none;" d="M757 438L758 439L757 438M759.333 438.667L759.667 439.333L759.333 438.667z"/>
<path style="fill:#fffff7; stroke:none;" d="M764 438L765 439L764 438z"/>
<path style="fill:#6fc5b3; stroke:none;" d="M783 438L784 439L783 438M785 438L786 439L785 438M797 438L798 439L797 438z"/>
<path style="fill:#cbcbb0; stroke:none;" d="M799 438L800 439L799 438z"/>
<path style="fill:#536860; stroke:none;" d="M800 438L801 439L800 438z"/>
<path style="fill:#cbcbb0; stroke:none;" d="M805 438L805 439L808 439L805 438M822.667 438.333L823.333 438.667L822.667 438.333z"/>
<path style="fill:#536860; stroke:none;" d="M826 438L827 439L826 438z"/>
<path style="fill:#6fc5b3; stroke:none;" d="M834 438L835 439L834 438z"/>
<path style="fill:#fffff7; stroke:none;" d="M835 438L836 439L835 438z"/>
<path style="fill:#6fc5b3; stroke:none;" d="M873.333 438.667L873.667 439.333L873.333 438.667z"/>
<path style="fill:#536860; stroke:none;" d="M878 438L879 439L878 438z"/>
<path style="fill:#cbcbb0; stroke:none;" d="M890 438L891 439L890 438M892 438L893 439L892 438z"/>
<path style="fill:#536860; stroke:none;" d="M895 438L896 439L895 438z"/>
<path style="fill:#cbcbb0; stroke:none;" d="M897 438L898 439L897 438z"/>
<path style="fill:#6fc5b3; stroke:none;" d="M903 438L904 439L903 438z"/>
<path style="fill:#fffff7; stroke:none;" d="M904 438L903 440L904 438z"/>
<path style="fill:#6fc5b3; stroke:none;" d="M914 438L915 439L914 438z"/>
<path style="fill:#cbcbb0; stroke:none;" d="M919 438L920 439L919 438z"/>
<path style="fill:#536860; stroke:none;" d="M923 438L925 440L923 438z"/>
<path style="fill:#fffff7; stroke:none;" d="M924 438L925 439L924 438z"/>
<path style="fill:#6fc5b3; stroke:none;" d="M925 438L926 439L925 438z"/>
<path style="fill:#cbcbb0; stroke:none;" d="M937.333 438.667L937.667 439.333L937.333 438.667z"/>
<path style="fill:#6fc5b3; stroke:none;" d="M944 438L945 439L944 438M952 438L953 439L952 438M954.333 438.667L954.667 439.333L954.333 438.667z"/>
<path style="fill:#fffff7; stroke:none;" d="M959 438L960 439L959 438z"/>
<path style="fill:#6fc5b3; stroke:none;" d="M971 438L972 439L971 438z"/>
<path style="fill:#cbcbb0; stroke:none;" d="M973 438L972 440L973 438z"/>
<path style="fill:#6fc5b3; stroke:none;" d="M974 438L973 442L976 442L974 438z"/>
<path style="fill:#536860; stroke:none;" d="M372.667 439.333L373.333 439.667L372.667 439.333M421.667 439.333L422.333 439.667L421.667 439.333M445 439L445 440L449 440L445 439M484.667 439.333L485.333 439.667L484.667 439.333z"/>
<path style="fill:#6fc5b3; stroke:none;" d="M556.333 439.667L556.667 440.333L556.333 439.667z"/>
<path style="fill:#fffff7; stroke:none;" d="M565 439L566 440L565 439z"/>
<path style="fill:#6fc5b3; stroke:none;" d="M577 439L578 440L577 439z"/>
<path style="fill:#cbcbb0; stroke:none;" d="M578.333 439.667L578.667 440.333L578.333 439.667z"/>
<path style="fill:#fffff7; stroke:none;" d="M579 439L580 440L579 439z"/>
<path style="fill:#536860; stroke:none;" d="M581 439L582 440L581 439z"/>
<path style="fill:#cbcbb0; stroke:none;" d="M594 439L595 440L594 439z"/>
<path style="fill:#6fc5b3; stroke:none;" d="M597 439L598 440L597 439M603 439L604 440L603 439M611 439L612 440L611 439z"/>
<path style="fill:#cbcbb0; stroke:none;" d="M615 439L611 444L615 439z"/>
<path style="fill:#6fc5b3; stroke:none;" d="M616 439L617 440L616 439M625.333 439.667L625.667 440.333L625.333 439.667M629.667 439.333L630.333 439.667L629.667 439.333z"/>
<path style="fill:#cbcbb0; stroke:none;" d="M633 439L631 442C633.251 441.527 634.118 441.14 633 439z"/>
<path style="fill:#536860; stroke:none;" d="M634 439L635 440L634 439z"/>
<path style="fill:#fffff7; stroke:none;" d="M636 439L637 440L636 439z"/>
<path style="fill:#536860; stroke:none;" d="M650 439L651 440L650 439z"/>
<path style="fill:#6fc5b3; stroke:none;" d="M652 439L653 440L652 439z"/>
<path style="fill:#536860; stroke:none;" d="M654 439L655 440L654 439z"/>
<path style="fill:#cbcbb0; stroke:none;" d="M655 439L656 440L655 439z"/>
<path style="fill:#6fc5b3; stroke:none;" d="M657 439L658 440L657 439z"/>
<path style="fill:#536860; stroke:none;" d="M671 439L672 440L671 439z"/>
<path style="fill:#6fc5b3; stroke:none;" d="M675.667 439.333L676.333 439.667L675.667 439.333z"/>
<path style="fill:#536860; stroke:none;" d="M680 439L681 440L680 439z"/>
<path style="fill:#fffff7; stroke:none;" d="M682 439L683 440L682 439z"/>
<path style="fill:#536860; stroke:none;" d="M696 439L697 440L696 439z"/>
<path style="fill:#cbcbb0; stroke:none;" d="M698 439L699 440L698 439z"/>
<path style="fill:#536860; stroke:none;" d="M700 439L701 440L700 439z"/>
<path style="fill:#cbcbb0; stroke:none;" d="M701 439L702 440L701 439M703 439L704 440L703 439z"/>
<path style="fill:#6fc5b3; stroke:none;" d="M745 439L746 440L745 439z"/>
<path style="fill:#cbcbb0; stroke:none;" d="M749 439L750 440L749 439z"/>
<path style="fill:#6fc5b3; stroke:none;" d="M751 439L752 440L751 439z"/>
<path style="fill:#536860; stroke:none;" d="M756 439L757 440L756 439z"/>
<path style="fill:#fffff7; stroke:none;" d="M763 439L764 440L763 439z"/>
<path style="fill:#cbcbb0; stroke:none;" d="M775 439L776 440L775 439z"/>
<path style="fill:#6fc5b3; stroke:none;" d="M777 439L778 440L777 439z"/>
<path style="fill:#536860; stroke:none;" d="M780 439L781 440L780 439z"/>
<path style="fill:#cbcbb0; stroke:none;" d="M781.333 439.667L781.667 440.333L781.333 439.667z"/>
<path style="fill:#fffff7; stroke:none;" d="M782 439L783 440L782 439z"/>
<path style="fill:#cbcbb0; stroke:none;" d="M783 439L784 440L783 439z"/>
<path style="fill:#536860; stroke:none;" d="M784 439L785 440L784 439z"/>
<path style="fill:#6fc5b3; stroke:none;" d="M803 439L804 440L803 439M806 439L807 440L806 439z"/>
<path style="fill:#cbcbb0; stroke:none;" d="M821 439L822 440L821 439M824 439L825 440L824 439M829 439L830 440L829 439z"/>
<path style="fill:#536860; stroke:none;" d="M832 439L833 440L832 439z"/>
<path style="fill:#cbcbb0; stroke:none;" d="M833.667 439.333L834.333 439.667L833.667 439.333z"/>
<path style="fill:#536860; stroke:none;" d="M835 439L836 440L835 439M876 439L876 442L877 442L876 439z"/>
<path style="fill:#6fc5b3; stroke:none;" d="M890 439L891 440L890 439z"/>
<path style="fill:#cbcbb0; stroke:none;" d="M893 439L894 440L893 439z"/>
<path style="fill:#536860; stroke:none;" d="M894 439L895 440L894 439M901 439L902 440L901 439z"/>
<path style="fill:#cbcbb0; stroke:none;" d="M902 439L903 440L902 439z"/>
<path style="fill:#536860; stroke:none;" d="M904 439L905 440L904 439z"/>
<path style="fill:#6fc5b3; stroke:none;" d="M915 439L916 440L915 439z"/>
<path style="fill:#536860; stroke:none;" d="M921 439L922 440L921 439z"/>
<path style="fill:#cbcbb0; stroke:none;" d="M922.667 439.333L923.333 439.667L922.667 439.333z"/>
<path style="fill:#6fc5b3; stroke:none;" d="M940 439L941 440L940 439z"/>
<path style="fill:#cbcbb0; stroke:none;" d="M944 439L945 440L944 439z"/>
<path style="fill:#6fc5b3; stroke:none;" d="M946 439L947 440L946 439M951.333 439.667L951.667 440.333L951.333 439.667z"/>
<path style="fill:#fffff7; stroke:none;" d="M958 439L959 440L958 439z"/>
<path style="fill:#6fc5b3; stroke:none;" d="M970 439L971 440L970 439z"/>
<path style="fill:#2d2d2d; stroke:none;" d="M973 439L970 444L973 439z"/>
<path style="fill:#536860; stroke:none;" d="M369 440L370 441L369 440M425 440L425 441L428 441L425 440M455 440L455 441L461 441L455 440M476 440L476 441L481 441L476 440M558 440L559 441L558 440z"/>
<path style="fill:#6fc5b3; stroke:none;" d="M563 442L566 441L563 442z"/>
<path style="fill:#fffff7; stroke:none;" d="M576.667 440.333L577.333 440.667L576.667 440.333z"/>
<path style="fill:#536860; stroke:none;" d="M579 440L580 441L579 440M594 440L595 441L594 440z"/>
<path style="fill:#6fc5b3; stroke:none;" d="M596 440L597 441L596 440z"/>
<path style="fill:#536860; stroke:none;" d="M601 440L602 441L601 440z"/>
<path style="fill:#6fc5b3; stroke:none;" d="M608 440L609 441L608 440M610.333 440.667L610.667 441.333L610.333 440.667M615 440L616 441L615 440M628 440L629 441L628 440z"/>
<path style="fill:#fffff7; stroke:none;" d="M634 440L635 441L634 440z"/>
<path style="fill:#cbcbb0; stroke:none;" d="M635 440L636 441L635 440z"/>
<path style="fill:#536860; stroke:none;" d="M636 440L637 441L636 440z"/>
<path style="fill:#6fc5b3; stroke:none;" d="M651 440L652 441L651 440M656 440L657 441L656 440M671 440L672 441L671 440M674 440L675 441L674 440z"/>
<path style="fill:#cbcbb0; stroke:none;" d="M676 440L676 441L680 440L676 440M681 440L682 441L681 440z"/>
<path style="fill:#536860; stroke:none;" d="M682 440L683 441L682 440z"/>
<path style="fill:#6fc5b3; stroke:none;" d="M697 440L698 441L697 440M702 440L703 441L702 440M742 440L743 441L742 440M744 440L745 441L744 440M749 440L750 441L749 440z"/>
<path style="fill:#536860; stroke:none;" d="M750 440L751 441L750 440z"/>
<path style="fill:#6fc5b3; stroke:none;" d="M756 440L757 441L756 440M758 440L759 441L758 440z"/>
<path style="fill:#cbcbb0; stroke:none;" d="M762 440L763 441L762 440z"/>
<path style="fill:#6fc5b3; stroke:none;" d="M775 440L776 441L775 440M782 440L783 441L782 440z"/>
<path style="fill:#536860; stroke:none;" d="M802 440L803 441L802 440z"/>
<path style="fill:#6fc5b3; stroke:none;" d="M805 440L806 441L805 440M822 440L823 441L822 440z"/>
<path style="fill:#536860; stroke:none;" d="M823 440L824 441L823 440z"/>
<path style="fill:#6fc5b3; stroke:none;" d="M830 440L831 441L830 440z"/>
<path style="fill:#cbcbb0; stroke:none;" d="M831 440L829 441L829 442L831 440z"/>
<path style="fill:#fffff7; stroke:none;" d="M832 440L833 441L832 440z"/>
<path style="fill:#6fc5b3; stroke:none;" d="M833 440L834 441L833 440z"/>
<path style="fill:#536860; stroke:none;" d="M872 440L873 441L872 440z"/>
<path style="fill:#6fc5b3; stroke:none;" d="M891 440L892 441L891 440z"/>
<path style="fill:#536860; stroke:none;" d="M892 440L893 441L892 440z"/>
<path style="fill:#cbcbb0; stroke:none;" d="M897 440L897 441L901 441L901 440L897 440z"/>
<path style="fill:#6fc5b3; stroke:none;" d="M899 440L900 441L899 440z"/>
<path style="fill:#fffff7; stroke:none;" d="M901 440L902 441L901 440z"/>
<path style="fill:#6fc5b3; stroke:none;" d="M902 440L903 441L902 440M913 440L914 441L913 440M922 440L923 441L922 440M937 440L938 441L937 440M939 440L940 441L939 440M944 440L945 441L944 440z"/>
<path style="fill:#536860; stroke:none;" d="M945 440L946 441L945 440z"/>
<path style="fill:#6fc5b3; stroke:none;" d="M953 440L954 441L953 440z"/>
<path style="fill:#cbcbb0; stroke:none;" d="M957 440L958 441L957 440z"/>
<path style="fill:#6fc5b3; stroke:none;" d="M969 440L970 441L969 440M971 440L972 441L971 440z"/>
<path style="fill:#cbcbb0; stroke:none;" d="M975 440L976 441L975 440z"/>
<path style="fill:#536860; stroke:none;" d="M365.667 441.333L366.333 441.667L365.667 441.333M430.667 441.333L431.333 441.667L430.667 441.333M515.333 441.667L515.667 442.333L515.333 441.667z"/>
<path style="fill:#cbcbb0; stroke:none;" d="M556.333 441.667L556.667 442.333L556.333 441.667M564 441L565 442L564 441z"/>
<path style="fill:#536860; stroke:none;" d="M576.667 441.333L577.333 441.667L576.667 441.333z"/>
<path style="fill:#6fc5b3; stroke:none;" d="M614 441L615 442L614 441M630 441L631 442L630 441z"/>
<path style="fill:#536860; stroke:none;" d="M634 441L635 442L634 441M652 441L653 442L652 441z"/>
<path style="fill:#6fc5b3; stroke:none;" d="M653 441L654 442L653 441z"/>
<path style="fill:#536860; stroke:none;" d="M654.667 441.333L655.333 441.667L654.667 441.333z"/>
<path style="fill:#6fc5b3; stroke:none;" d="M676 441L677 442L676 441z"/>
<path style="fill:#536860; stroke:none;" d="M680 441L681 442L680 441M698 441L699 442L698 441z"/>
<path style="fill:#6fc5b3; stroke:none;" d="M699 441L700 442L699 441z"/>
<path style="fill:#536860; stroke:none;" d="M700.667 441.333L701.333 441.667L700.667 441.333z"/>
<path style="fill:#6fc5b3; stroke:none;" d="M755.333 441.667L755.667 442.333L755.333 441.667z"/>
<path style="fill:#cbcbb0; stroke:none;" d="M761 441L762 442L761 441z"/>
<path style="fill:#6fc5b3; stroke:none;" d="M776 441L777 442L776 441z"/>
<path style="fill:#cbcbb0; stroke:none;" d="M777.667 441.333L778.333 441.667L777.667 441.333z"/>
<path style="fill:#6fc5b3; stroke:none;" d="M779 441L780 442L779 441z"/>
<path style="fill:#536860; stroke:none;" d="M780 441L781 442L780 441M801 441L802 442L801 441z"/>
<path style="fill:#6fc5b3; stroke:none;" d="M804.333 441.667L804.667 442.333L804.333 441.667M828 441L829 442L828 441z"/>
<path style="fill:#536860; stroke:none;" d="M831.667 441.333L832.333 441.667L831.667 441.333z"/>
<path style="fill:#6fc5b3; stroke:none;" d="M872 441L873 442L872 441z"/>
<path style="fill:#536860; stroke:none;" d="M897 441L898 442L897 441z"/>
<path style="fill:#6fc5b3; stroke:none;" d="M900 441L901 442L900 441z"/>
<path style="fill:#536860; stroke:none;" d="M901 441L902 442L901 441z"/>
<path style="fill:#6fc5b3; stroke:none;" d="M914 441L915 442L914 441M919 441L920 442L919 441z"/>
<path style="fill:#536860; stroke:none;" d="M920.667 441.333L921.333 441.667L920.667 441.333z"/>
<path style="fill:#6fc5b3; stroke:none;" d="M950 441L951 442L950 441z"/>
<path style="fill:#cbcbb0; stroke:none;" d="M956 441L957 442L956 441z"/>
<path style="fill:#6fc5b3; stroke:none;" d="M968 441L969 442L968 441z"/>
<path style="fill:#cbcbb0; stroke:none;" d="M970 441L971 442L970 441z"/>
<path style="fill:#fffff7; stroke:none;" d="M974 441L971 445L974 441z"/>
<path style="fill:#536860; stroke:none;" d="M362 442L363 443L362 442M434 442L434 443L437 443L434 442M513 442L514 443L513 442z"/>
<path style="fill:#fffff7; stroke:none;" d="M563 442L564 443L563 442z"/>
<path style="fill:#536860; stroke:none;" d="M564 442L565 443L564 442z"/>
<path style="fill:#6fc5b3; stroke:none;" d="M607 442L608 443L607 442M609 442L610 443L609 442M613 442L614 443L613 442M624 442L625 443L624 442M627 442L628 443L627 442M670 442L671 443L670 442M673 442L674 443L673 442M757 442L758 443L757 442z"/>
<path style="fill:#536860; stroke:none;" d="M759 442L760 443L759 442z"/>
<path style="fill:#cbcbb0; stroke:none;" d="M760 442L761 443L760 442z"/>
<path style="fill:#6fc5b3; stroke:none;" d="M800 442L801 443L800 442z"/>
<path style="fill:#536860; stroke:none;" d="M874 442L873 445L874 442z"/>
<path style="fill:#6fc5b3; stroke:none;" d="M876 442L876 446L877 446L876 442M912 442L911 444L911 445C913.158 444.022 913.501 443.812 912 442z"/>
<path style="fill:#cbcbb0; stroke:none;" d="M913 442L914 443L913 442M950 442L951 443L950 442z"/>
<path style="fill:#6fc5b3; stroke:none;" d="M952 442L953 443L952 442z"/>
<path style="fill:#536860; stroke:none;" d="M954 442L955 443L954 442z"/>
<path style="fill:#cbcbb0; stroke:none;" d="M955 442L956 443L955 442z"/>
<path style="fill:#536860; stroke:none;" d="M967 442L968 443L967 442M972 442L973 443L972 442M360 443L361 444L360 443M438 443L438 444L441 444L438 443M511 443L512 444L511 443z"/>
<path style="fill:#cbcbb0; stroke:none;" d="M557 443L557 447L558 447L557 443z"/>
<path style="fill:#6fc5b3; stroke:none;" d="M561 445L564 443L561 445M606.333 443.667L606.667 444.333L606.333 443.667z"/>
<path style="fill:#2d2d2d; stroke:none;" d="M609 443L610 444L609 443z"/>
<path style="fill:#536860; stroke:none;" d="M610 443L611 444L610 443z"/>
<path style="fill:#6fc5b3; stroke:none;" d="M612 443L613 444L612 443M754 443L755 444L754 443z"/>
<path style="fill:#2d2d2d; stroke:none;" d="M757 443L758 444L757 443z"/>
<path style="fill:#536860; stroke:none;" d="M758 443L759 444L758 443z"/>
<path style="fill:#6fc5b3; stroke:none;" d="M799 443L800 444L799 443z"/>
<path style="fill:#cbcbb0; stroke:none;" d="M801 443L802 444L801 443z"/>
<path style="fill:#6fc5b3; stroke:none;" d="M871 443L872 444L871 443M873 443L874 444L873 443z"/>
<path style="fill:#fffff7; stroke:none;" d="M912 443L913 444L912 443z"/>
<path style="fill:#6fc5b3; stroke:none;" d="M949 443L950 444L949 443z"/>
<path style="fill:#2d2d2d; stroke:none;" d="M952 443L953 444L952 443z"/>
<path style="fill:#536860; stroke:none;" d="M953 443L954 444L953 443z"/>
<path style="fill:#6fc5b3; stroke:none;" d="M967 443L968 444L967 443M969.333 443.667L969.667 444.333L969.333 443.667M971 443L972 444L971 443z"/>
<path style="fill:#536860; stroke:none;" d="M974 443L975 444L974 443M357 444L358 445L357 444M443.667 444.333L444.333 444.667L443.667 444.333M509 444L510 445L509 444M514 444L515 445L514 444z"/>
<path style="fill:#6fc5b3; stroke:none;" d="M608 444L609 445L608 444z"/>
<path style="fill:#536860; stroke:none;" d="M609 444L610 445L609 444z"/>
<path style="fill:#6fc5b3; stroke:none;" d="M611 444L612 445L611 444M623 444L624 445L623 444M626 444L627 445L626 444M669.333 444.667L669.667 445.333L669.333 444.667M672 444L673 445L672 444M756.667 444.333L757.333 444.667L756.667 444.333M759 444L760 445L759 444z"/>
<path style="fill:#536860; stroke:none;" d="M798 444L799 445L798 444z"/>
<path style="fill:#6fc5b3; stroke:none;" d="M801 444L802 445L801 444M803 444L804 445L803 444z"/>
<path style="fill:#cbcbb0; stroke:none;" d="M871 444L872 445L871 444z"/>
<path style="fill:#6fc5b3; stroke:none;" d="M951.667 444.333L952.333 444.667L951.667 444.333M954 444L955 445L954 444z"/>
<path style="fill:#cbcbb0; stroke:none;" d="M967 444L968 445L967 444M970.333 444.667L970.667 445.333L970.333 444.667M972 444L973 445L972 444z"/>
<path style="fill:#536860; stroke:none;" d="M973 444L974 445L973 444M355 445L356 446L355 445M447.667 445.333L448.333 445.667L447.667 445.333M506.667 445.333L507.333 445.667L506.667 445.333M560 445L561 446L560 445z"/>
<path style="fill:#6fc5b3; stroke:none;" d="M605 445L606 446L605 445z"/>
<path style="fill:#cbcbb0; stroke:none;" d="M608 445L609 446L608 445z"/>
<path style="fill:#6fc5b3; stroke:none;" d="M610 445L611 446L610 445M753 445L754 446L753 445z"/>
<path style="fill:#cbcbb0; stroke:none;" d="M756 445L757 446L756 445z"/>
<path style="fill:#6fc5b3; stroke:none;" d="M758 445L759 446L758 445z"/>
<path style="fill:#536860; stroke:none;" d="M797 445L798 446L797 445M800 445L801 446L800 445M870 445L871 446L870 445z"/>
<path style="fill:#cbcbb0; stroke:none;" d="M872 445L873 446L872 445z"/>
<path style="fill:#2d2d2d; stroke:none;" d="M873 445L867 464L868 464C871.022 458.803 875.358 451.044 873 445z"/>
<path style="fill:#6fc5b3; stroke:none;" d="M874 445L874 448L875 448L874 445z"/>
<path style="fill:#fffff7; stroke:none;" d="M911 445L912 446L911 445z"/>
<path style="fill:#6fc5b3; stroke:none;" d="M948 445L949 446L948 445z"/>
<path style="fill:#cbcbb0; stroke:none;" d="M950.667 445.333L951.333 445.667L950.667 445.333z"/>
<path style="fill:#6fc5b3; stroke:none;" d="M953 445L954 446L953 445M968 445L969 446L968 445z"/>
<path style="fill:#536860; stroke:none;" d="M971 445L972 446L971 445M353 446L354 447L353 446M451 446L451 447L454 447L451 446M504 446L505 447L504 446M513 446L514 447L513 446M559 446L560 447L559 446M561 446L562 447L561 446z"/>
<path style="fill:#6fc5b3; stroke:none;" d="M609 446L610 447L609 446M622.333 446.667L622.667 447.333L622.333 446.667M625 446L626 447L625 446z"/>
<path style="fill:#536860; stroke:none;" d="M668 446L669 447L668 446z"/>
<path style="fill:#6fc5b3; stroke:none;" d="M671 446L672 447L671 446M757 446L758 447L757 446z"/>
<path style="fill:#cbcbb0; stroke:none;" d="M797 446L798 447L797 446z"/>
<path style="fill:#6fc5b3; stroke:none;" d="M797 449L801 448L801 447L797 449M802.333 446.667L802.667 447.333L802.333 446.667M870 446L871 447L870 446M872 446L873 447L872 446z"/>
<path style="fill:#536860; stroke:none;" d="M876.333 446.667L876.667 447.333L876.333 446.667z"/>
<path style="fill:#6fc5b3; stroke:none;" d="M911 446L912 447L911 446M952 446L953 447L952 446z"/>
<path style="fill:#536860; stroke:none;" d="M351 447L352 448L351 447M456 447L456 448L459 448L456 447M500.667 447.333L501.333 447.667L500.667 447.333z"/>
<path style="fill:#6fc5b3; stroke:none;" d="M556 447L557 448L556 447z"/>
<path style="fill:#536860; stroke:none;" d="M560 447L561 448L560 447M604.333 447.667L604.667 448.333L604.333 447.667M608 447L609 448L608 447z"/>
<path style="fill:#6fc5b3; stroke:none;" d="M668 447L669 448L668 447M752 447L753 448L752 447z"/>
<path style="fill:#536860; stroke:none;" d="M756 447L757 448L756 447z"/>
<path style="fill:#6fc5b3; stroke:none;" d="M796 447L797 448L796 447z"/>
<path style="fill:#2d2d2d; stroke:none;" d="M799 447L789 468L790 468C793.516 462.669 800.157 453.603 799 447z"/>
<path style="fill:#6fc5b3; stroke:none;" d="M947 447L948 448L947 447z"/>
<path style="fill:#536860; stroke:none;" d="M951 447L952 448L951 447M349 448L350 449L349 448M461 448L461 449L465 449L461 448M496.667 448.333L497.333 448.667L496.667 448.333M512 448L513 449L512 448M558 448L559 449L558 448z"/>
<path style="fill:#cbcbb0; stroke:none;" d="M606 448L607 449L606 448z"/>
<path style="fill:#536860; stroke:none;" d="M607 448L608 449L607 448z"/>
<path style="fill:#6fc5b3; stroke:none;" d="M624 448L625 449L624 448M670 448L671 449L670 448z"/>
<path style="fill:#536860; stroke:none;" d="M752 448L753 449L752 448z"/>
<path style="fill:#cbcbb0; stroke:none;" d="M754 448L755 449L754 448z"/>
<path style="fill:#536860; stroke:none;" d="M755 448L756 449L755 448z"/>
<path style="fill:#6fc5b3; stroke:none;" d="M795 448L796 449L795 448M869.333 448.667L869.667 449.333L869.333 448.667M871 448L872 449L871 448z"/>
<path style="fill:#cbcbb0; stroke:none;" d="M874 448L875 449L874 448z"/>
<path style="fill:#536860; stroke:none;" d="M947 448L948 449L947 448z"/>
<path style="fill:#cbcbb0; stroke:none;" d="M949 448L950 449L949 448z"/>
<path style="fill:#536860; stroke:none;" d="M347 449L348 450L347 449M468 449L468 450L473 450L468 449M490 449L490 450L493 450L490 449z"/>
<path style="fill:#6fc5b3; stroke:none;" d="M621 449L622 450L621 449M667 449L668 450L667 449M799 449L800 450L799 449M801 449L802 450L801 449z"/>
<path style="fill:#536860; stroke:none;" d="M871 449L872 450L871 449z"/>
<path style="fill:#cbcbb0; stroke:none;" d="M875 449L876 450L875 449z"/>
<path style="fill:#536860; stroke:none;" d="M345 450L346 451L345 450M511 450L512 451L511 450z"/>
<path style="fill:#6fc5b3; stroke:none;" d="M623 450L624 451L623 450M669 450L670 451L669 450M794 450L795 451L794 450M796 450L797 451L796 450z"/>
<path style="fill:#cbcbb0; stroke:none;" d="M870 450L871 451L870 450z"/>
<path style="fill:#536860; stroke:none;" d="M873 450L874 451L873 450z"/>
<path style="fill:#6fc5b3; stroke:none;" d="M875.333 450.667L875.667 451.333L875.333 450.667z"/>
<path style="fill:#536860; stroke:none;" d="M343 451L344 452L343 451M510 451L511 452L510 451z"/>
<path style="fill:#6fc5b3; stroke:none;" d="M620 451L621 452L620 451M666.333 451.667L666.667 452.333L666.333 451.667M793 451L794 452L793 451M795 451L796 452L795 451M798.333 451.667L798.667 452.333L798.333 451.667M800.333 451.667L800.667 452.333L800.333 451.667M868 451L869 452L868 451M870 451L871 452L870 451M873 451L874 452L873 451z"/>
<path style="fill:#536860; stroke:none;" d="M342 452L343 453L342 452z"/>
<path style="fill:#6fc5b3; stroke:none;" d="M622 452L623 453L622 452M668 452L669 453L668 452z"/>
<path style="fill:#cbcbb0; stroke:none;" d="M873 452L874 453L873 452z"/>
<path style="fill:#536860; stroke:none;" d="M340 453L341 454L340 453M509 453L510 454L509 453z"/>
<path style="fill:#6fc5b3; stroke:none;" d="M619.333 453.667L619.667 454.333L619.333 453.667z"/>
<path style="fill:#536860; stroke:none;" d="M668 453L669 454L668 453z"/>
<path style="fill:#6fc5b3; stroke:none;" d="M792 453L793 454L792 453M794 453L795 454L794 453z"/>
<path style="fill:#536860; stroke:none;" d="M867 453L868 454L867 453z"/>
<path style="fill:#6fc5b3; stroke:none;" d="M869.333 453.667L869.667 454.333L869.333 453.667z"/>
<path style="fill:#cbcbb0; stroke:none;" d="M874 453L875 454L874 453z"/>
<path style="fill:#536860; stroke:none;" d="M338 454L339 455L338 454M508 454L509 455L508 454z"/>
<path style="fill:#6fc5b3; stroke:none;" d="M621 454L622 455L621 454M665 454L666 455L665 454M667.333 454.667L667.667 455.333L667.333 454.667M797 454L798 455L797 454M799 454L800 455L799 454M867 454L868 455L867 454M872 454L873 455L872 454M874 454L875 455L874 454z"/>
<path style="fill:#536860; stroke:none;" d="M337 455L338 456L337 455M507 455L508 456L507 455M621 455L622 456L621 455z"/>
<path style="fill:#6fc5b3; stroke:none;" d="M791 455L792 456L791 455M793 455L794 456L793 455z"/>
<path style="fill:#cbcbb0; stroke:none;" d="M872 455L873 456L872 455z"/>
<path style="fill:#536860; stroke:none;" d="M874 455L875 456L874 455M348 456L348 457L352 457L348 456M367 456L367 457L373 457L367 456M506 456L507 457L506 456z"/>
<path style="fill:#6fc5b3; stroke:none;" d="M618 456L619 457L618 456M620.333 456.667L620.667 457.333L620.333 456.667M664 456L665 457L664 456M796 456L797 457L796 456M798 456L799 457L798 456z"/>
<path style="fill:#536860; stroke:none;" d="M866 456L867 457L866 456z"/>
<path style="fill:#6fc5b3; stroke:none;" d="M868.333 456.667L868.667 457.333L868.333 456.667z"/>
<path style="fill:#536860; stroke:none;" d="M334 457L335 458L334 457M342 457L342 458L345 458L342 457M377 457L377 458L380 458L377 457M505 457L506 458L505 457z"/>
<path style="fill:#cbcbb0; stroke:none;" d="M664 457L665 458L664 457z"/>
<path style="fill:#6fc5b3; stroke:none;" d="M666 457L667 458L666 457M790 457L791 458L790 457M792 457L793 458L792 457M866 457L867 458L866 457M871 457L872 458L871 457M873 457L874 458L873 457z"/>
<path style="fill:#536860; stroke:none;" d="M333 458L334 459L333 458M339 458L340 459L339 458M383 458L383 459L386 459L383 458z"/>
<path style="fill:#6fc5b3; stroke:none;" d="M617.333 458.667L617.667 459.333L617.333 458.667z"/>
<path style="fill:#536860; stroke:none;" d="M663 458L664 459L663 458z"/>
<path style="fill:#6fc5b3; stroke:none;" d="M795 458L796 459L795 458M797 458L798 459L797 458z"/>
<path style="fill:#cbcbb0; stroke:none;" d="M866 458L867 459L866 458z"/>
<path style="fill:#536860; stroke:none;" d="M331 459L332 460L331 459M336 459L337 460L336 459M389.667 459.333L390.333 459.667L389.667 459.333z"/>
<path style="fill:#6fc5b3; stroke:none;" d="M619 459L620 460L619 459M663 459L664 460L663 459M665 459L666 460L665 459M789 459L790 460L789 459M791 459L792 460L791 459M867.333 459.667L867.667 460.333L867.333 459.667M870 459L871 460L870 459M872 459L873 460L872 459z"/>
<path style="fill:#536860; stroke:none;" d="M330 460L331 461L330 460M333.667 460.333L334.333 460.667L333.667 460.333M394.667 460.333L395.333 460.667L394.667 460.333M502 460L503 461L502 460z"/>
<path style="fill:#6fc5b3; stroke:none;" d="M794 460L795 461L794 460M796 460L797 461L796 460M865.333 460.667L865.667 461.333L865.333 460.667z"/>
<path style="fill:#536860; stroke:none;" d="M329 461L328 463L330 463L329 461M331 461L332 462L331 461M398 461L398 462L401 462L398 461M501 461L502 462L501 461z"/>
<path style="fill:#6fc5b3; stroke:none;" d="M616 461L617 462L616 461M618 461L619 462L618 461M662 461L664 464L662 461M664.333 461.667L664.667 462.333L664.333 461.667M788.333 461.667L788.667 462.333L788.333 461.667M790.333 461.667L790.667 462.333L790.333 461.667M869 461L870 462L869 461M871 461L872 462L871 461z"/>
<path style="fill:#536860; stroke:none;" d="M403.667 462.333L404.333 462.667L403.667 462.333M500 462L501 463L500 462z"/>
<path style="fill:#cbcbb0; stroke:none;" d="M616 462L617 463L616 462z"/>
<path style="fill:#536860; stroke:none;" d="M618 462L619 463L618 462z"/>
<path style="fill:#6fc5b3; stroke:none;" d="M793 462L794 463L793 462M795 462L796 463L795 462z"/>
<path style="fill:#536860; stroke:none;" d="M327 463L328 464L327 463M407.667 463.333L408.333 463.667L407.667 463.333M499 463L500 464L499 463z"/>
<path style="fill:#6fc5b3; stroke:none;" d="M616.667 463.333L617.333 463.667L616.667 463.333z"/>
<path style="fill:#536860; stroke:none;" d="M864 463L865 464L864 463z"/>
<path style="fill:#6fc5b3; stroke:none;" d="M866 463L866 465L868 465L866 463z"/>
<path style="fill:#cbcbb0; stroke:none;" d="M868 463L869 464L868 463z"/>
<path style="fill:#6fc5b3; stroke:none;" d="M870 463L871 464L870 463z"/>
<path style="fill:#536860; stroke:none;" d="M411 464L411 465L414 465L411 464M497 464L498 465L497 464M787 464L788 465L787 464z"/>
<path style="fill:#6fc5b3; stroke:none;" d="M789.333 464.667L789.667 465.333L789.333 464.667M792 464L793 465L792 464M794 464L795 465L794 464M864.333 464.667L864.667 465.333L864.333 464.667z"/>
<path style="fill:#536860; stroke:none;" d="M416.667 465.333L417.333 465.667L416.667 465.333M496 465L497 466L496 465z"/>
<path style="fill:#6fc5b3; stroke:none;" d="M787.333 465.667L787.667 466.333L787.333 465.667z"/>
<path style="fill:#536860; stroke:none;" d="M791 465L792 466L791 465z"/>
<path style="fill:#cbcbb0; stroke:none;" d="M866 465L867 466L866 465z"/>
<path style="fill:#6fc5b3; stroke:none;" d="M869 465L870 466L869 465z"/>
<path style="fill:#536860; stroke:none;" d="M420.667 466.333L421.333 466.667L420.667 466.333M494 466L495 467L494 466M789 466L790 467L789 466z"/>
<path style="fill:#cbcbb0; stroke:none;" d="M791 466L792 467L791 466z"/>
<path style="fill:#6fc5b3; stroke:none;" d="M793 466L794 467L793 466z"/>
<path style="fill:#cbcbb0; stroke:none;" d="M864 466L865 467L864 466z"/>
<path style="fill:#536860; stroke:none;" d="M424 467L424 468L427 468L424 467M492 467L493 468L492 467z"/>
<path style="fill:#cbcbb0; stroke:none;" d="M787.333 467.667L787.667 468.333L787.333 467.667z"/>
<path style="fill:#6fc5b3; stroke:none;" d="M790 467L791 468L790 467M792 467L793 468L792 467z"/>
<path style="fill:#536860; stroke:none;" d="M868 467L869 468L868 467M429.667 468.333L430.333 468.667L429.667 468.333M490 468L491 469L490 468z"/>
<path style="fill:#6fc5b3; stroke:none;" d="M789 468L790 469L789 468M867 468L868 469L867 468z"/>
<path style="fill:#536860; stroke:none;" d="M434.667 469.333L435.333 469.667L434.667 469.333M487.667 469.333L488.333 469.667L487.667 469.333z"/>
<path style="fill:#6fc5b3; stroke:none;" d="M787 469L788 470L787 469z"/>
<path style="fill:#536860; stroke:none;" d="M791 469L792 470L791 469z"/>
<path style="fill:#cbcbb0; stroke:none;" d="M864 469L865 470L864 469z"/>
<path style="fill:#6fc5b3; stroke:none;" d="M866 469L867 470L866 469z"/>
<path style="fill:#536860; stroke:none;" d="M439 470L439 471L442 471L439 470M484.667 470.333L485.333 470.667L484.667 470.333z"/>
<path style="fill:#6fc5b3; stroke:none;" d="M788 470L789 471L788 470z"/>
<path style="fill:#536860; stroke:none;" d="M789.667 470.333L790.333 470.667L789.667 470.333M445 471L445 472L448 472L445 471M480.667 471.333L481.333 471.667L480.667 471.333M452 472L452 473L457 473L452 472M474 472L474 473L477 473L474 472M1314.33 851.667L1314.67 852.333L1314.33 851.667z"/>
<path style="fill:#6fc5b3; stroke:none;" d="M1314 853L1315 854L1314 853z"/>
<path style="fill:#cbcbb0; stroke:none;" d="M1314 854L1315 855L1314 854z"/>
<path style="fill:#536860; stroke:none;" d="M1313 856L1314 857L1313 856z"/>
<path style="fill:#cbcbb0; stroke:none;" d="M1313 857L1314 858L1313 857z"/>
<path style="fill:#536860; stroke:none;" d="M1312 858L1313 859L1312 858z"/>
<path style="fill:#cbcbb0; stroke:none;" d="M1311 860L1312 861L1311 860z"/>
<path style="fill:#536860; stroke:none;" d="M1310 861L1311 862L1310 861M0 862L3 865L0 862M1309 862L1310 863L1309 862z"/>
<path style="fill:#fffff7; stroke:none;" d="M0 863L0 868L6 868L6 867L0 863z"/>
<path style="fill:#536860; stroke:none;" d="M1308 863L1309 864L1308 863M1307 864L1308 865L1307 864z"/>
<path style="fill:#cbcbb0; stroke:none;" d="M3 865L4 866L3 865M1306 865L1307 866L1306 865z"/>
<path style="fill:#536860; stroke:none;" d="M5 866L6 867L5 866M1304 866L1305 867L1304 866z"/>
<path style="fill:#cbcbb0; stroke:none;" d="M6 867L7 868L6 867z"/>
<path style="fill:#536860; stroke:none;" d="M7 867L8 868L7 867M1302 867L1303 868L1302 867z"/>
<path style="fill:#cbcbb0; stroke:none;" d="M1303 867L1304 868L1303 867z"/>
</svg>
